<svg width="16" height="16" viewBox="0 0 16 16" fill="none" xmlns="http://www.w3.org/2000/svg">
<g id="ic" clip-path="url(#clip0_1346_3125)">
<mask id="mask0_1346_3125" style="mask-type:alpha" maskUnits="userSpaceOnUse" x="0" y="0" width="24" height="24">
<rect id="Bounding box" width="24" height="24" fill="#D9D9D9"/>
</mask>
<g mask="url(#mask0_1346_3125)">
<path id="call" d="M12.9538 13.6283C11.6573 13.6283 10.3733 13.3206 9.10192 12.7052C7.83057 12.0899 6.69554 11.2828 5.69682 10.2841C4.6981 9.28539 3.88999 8.15142 3.27247 6.8822C2.65495 5.61297 2.34619 4.33007 2.34619 3.0335C2.34619 2.8335 2.41286 2.66683 2.54619 2.5335C2.67952 2.40016 2.84619 2.3335 3.04619 2.3335H5.22051C5.39316 2.3335 5.54381 2.3867 5.67244 2.49311C5.80106 2.59952 5.88076 2.73692 5.91154 2.9053L6.29359 4.86681C6.32008 5.03091 6.3173 5.18006 6.28526 5.31425C6.2532 5.44844 6.1829 5.56553 6.07436 5.66553L4.54102 7.16425C5.06752 8.05827 5.69531 8.86596 6.42438 9.58733C7.15343 10.3087 7.97865 10.9378 8.90002 11.4745L10.3898 9.95913C10.4983 9.85059 10.6267 9.77345 10.775 9.72773C10.9233 9.682 11.0752 9.67238 11.2308 9.69888L13.082 10.0758C13.2504 10.1134 13.3878 10.1948 13.4942 10.32C13.6006 10.4452 13.6538 10.5942 13.6538 10.7668V12.9283C13.6538 13.1283 13.5872 13.295 13.4538 13.4283C13.3205 13.5617 13.1538 13.6283 12.9538 13.6283ZM4.06156 6.21811L5.25131 5.07965C5.27267 5.06255 5.28656 5.03904 5.29297 5.00913C5.29939 4.97921 5.29831 4.95143 5.28976 4.9258L5.00003 3.43605C4.99147 3.40186 4.97651 3.37622 4.95514 3.35913C4.93378 3.34203 4.906 3.33348 4.87181 3.33348H3.44617C3.42053 3.33348 3.39916 3.34203 3.38206 3.35913C3.36497 3.37622 3.35642 3.39759 3.35642 3.42323C3.3906 3.87879 3.46517 4.34161 3.58014 4.8117C3.6951 5.28179 3.85557 5.75059 4.06156 6.21811ZM12.5641 12.6078C12.5898 12.6078 12.6111 12.5993 12.6282 12.5822C12.6453 12.5651 12.6539 12.5437 12.6539 12.5181V11.1155C12.6539 11.0813 12.6453 11.0536 12.6282 11.0322C12.6111 11.0108 12.5855 10.9959 12.5513 10.9873L11.1513 10.7027C11.1256 10.6942 11.1032 10.6931 11.084 10.6995C11.0647 10.7059 11.0444 10.7198 11.0231 10.7412L9.83589 11.9412C10.2778 12.1472 10.7387 12.3046 11.2186 12.4136C11.6985 12.5226 12.147 12.5873 12.5641 12.6078Z" fill="white"/>
</g>
</g>
<defs>
<clipPath id="clip0_1346_3125">
<rect width="16" height="16" fill="white"/>
</clipPath>
</defs>
</svg>
