<svg width="16" height="16" viewBox="0 0 16 16" fill="none" xmlns="http://www.w3.org/2000/svg">
<g id="soc">
<path id="Vector" d="M6.03553 8.0339C6.03553 6.93967 6.92234 6.05239 8.01657 6.05239C9.1108 6.05239 9.99808 6.93967 9.99808 8.0339C9.99808 9.12813 9.1108 10.0154 8.01657 10.0154C6.92234 10.0154 6.03553 9.12813 6.03553 8.0339ZM4.96437 8.0339C4.96437 9.71963 6.33083 11.0861 8.01657 11.0861C9.70231 11.0861 11.0688 9.71963 11.0688 8.0339C11.0688 6.34816 9.70231 4.9817 8.01657 4.9817C6.33083 4.9817 4.96441 6.34807 4.96441 8.0339H4.96437ZM10.4764 4.86068C10.4763 5.00175 10.5181 5.13967 10.5964 5.257C10.6747 5.37434 10.7861 5.4658 10.9164 5.51984C11.0467 5.57388 11.1902 5.58806 11.3285 5.5606C11.4669 5.53313 11.594 5.46525 11.6938 5.36553C11.7936 5.26582 11.8616 5.13875 11.8892 5.0004C11.9168 4.86204 11.9027 4.71862 11.8488 4.58826C11.7948 4.4579 11.7034 4.34647 11.5862 4.26804C11.4689 4.18962 11.331 4.14773 11.1899 4.14768H11.1897C11.0006 4.14776 10.8192 4.2229 10.6855 4.35659C10.5517 4.49027 10.4765 4.67158 10.4764 4.86068ZM5.61517 12.8723C5.03565 12.8459 4.72066 12.7493 4.51133 12.6678C4.23382 12.5597 4.03581 12.4311 3.82762 12.2232C3.61944 12.0153 3.49057 11.8175 3.38301 11.5399C3.30141 11.3307 3.20488 11.0156 3.17853 10.4361C3.14972 9.80955 3.14396 9.62134 3.14396 8.03399C3.14396 6.44664 3.15019 6.25896 3.17853 5.63188C3.20492 5.05236 3.30217 4.7379 3.38301 4.52805C3.49105 4.25053 3.61972 4.05252 3.82762 3.84434C4.03552 3.63615 4.23334 3.50729 4.51133 3.39972C4.72057 3.31812 5.03565 3.22159 5.61517 3.19525C6.24172 3.16643 6.42993 3.16068 8.01657 3.16068C9.60321 3.16068 9.79161 3.16681 10.4187 3.19534C10.9982 3.22173 11.3127 3.31898 11.5225 3.39982C11.8 3.50738 11.998 3.63653 12.2062 3.84443C12.4144 4.05233 12.5428 4.25063 12.6508 4.52814C12.7324 4.73737 12.829 5.05245 12.8553 5.63198C12.8841 6.25905 12.8899 6.44674 12.8899 8.03409C12.8899 9.62143 12.8841 9.80912 12.8553 10.4362C12.8289 11.0157 12.7319 11.3307 12.6508 11.54C12.5428 11.8175 12.4141 12.0156 12.2062 12.2233C11.9983 12.431 11.8 12.5598 11.5225 12.6679C11.3133 12.7495 10.9982 12.846 10.4187 12.8724C9.79213 12.9012 9.60392 12.9069 8.01657 12.9069C6.42922 12.9069 6.24153 12.9012 5.61517 12.8724V12.8723ZM5.56595 2.12584C4.93317 2.15466 4.50078 2.25499 4.12316 2.40193C3.73233 2.55367 3.40103 2.75724 3.07021 3.08754C2.73939 3.41784 2.53634 3.74919 2.3846 4.14049C2.23766 4.51835 2.13732 4.9505 2.10851 5.58328C2.07921 6.21706 2.07251 6.41968 2.07251 8.0339C2.07251 9.64811 2.07921 9.85073 2.10851 10.4845C2.13732 11.1173 2.23766 11.5494 2.3846 11.9273C2.53634 12.3181 2.73943 12.6501 3.07021 12.9803C3.40098 13.3104 3.73185 13.5137 4.12316 13.6659C4.50149 13.8128 4.93317 13.9131 5.56595 13.942C6.20007 13.9708 6.40235 13.9779 8.01657 13.9779C9.63079 13.9779 9.83341 13.9712 10.4672 13.942C11.1 13.9131 11.5321 13.8128 11.91 13.6659C12.3008 13.5137 12.6321 13.3106 12.9629 12.9803C13.2938 12.65 13.4964 12.3181 13.6485 11.9273C13.7955 11.5494 13.8963 11.1173 13.9246 10.4845C13.9535 9.85026 13.9602 9.64811 13.9602 8.0339C13.9602 6.41968 13.9535 6.21706 13.9246 5.58328C13.8958 4.95045 13.7955 4.51811 13.6485 4.14049C13.4964 3.74966 13.2932 3.41836 12.9629 3.08754C12.6326 2.75672 12.3008 2.55367 11.9105 2.40193C11.5321 2.25499 11.1 2.15418 10.4677 2.12584C9.83379 2.09688 9.63126 2.08984 8.01728 2.08984C6.40331 2.08984 6.2003 2.09655 5.56619 2.12584" fill="white"/>
</g>
</svg>
