<svg width="72" height="72" viewBox="0 0 72 72" fill="none" xmlns="http://www.w3.org/2000/svg">
<path d="M38.111 57.8908C36.9138 57.2121 34.9828 57.2121 33.7857 57.8908C32.5885 58.5695 32.5885 59.6783 33.7857 60.357C34.9828 61.0357 36.9138 61.0357 38.111 60.357C39.3081 59.6783 39.3081 58.5695 38.111 57.8908Z" fill="#05142C"/>
<path d="M42.8128 54.7363C38.9606 52.5377 32.936 52.5377 29.0838 54.7363C27.095 55.8738 26.004 57.432 26.004 59.1239C26.004 60.8159 27.095 62.3836 29.0838 63.5211C31.0051 64.6204 33.4767 65.1748 35.9483 65.1748C38.4199 65.1748 40.8915 64.6204 42.8128 63.5211C44.8017 62.3836 45.8926 60.8254 45.8926 59.1239C45.8926 57.432 44.8017 55.8643 42.8128 54.7363ZM41.9921 62.1255C38.6613 64.0278 33.2257 64.0278 29.8948 62.1255C28.437 61.2938 27.626 60.2232 27.626 59.1335C27.626 58.0437 28.4273 56.9731 29.8948 56.1415C31.5651 55.1856 33.7567 54.7076 35.9483 54.7076C38.1399 54.7076 40.3315 55.1856 42.0018 56.1415C43.4597 56.9731 44.2707 58.0437 44.2707 59.1335C44.2707 60.2232 43.4693 61.2938 42.0018 62.1255H41.9921Z" fill="#05142C"/>
<path d="M38.111 56.2657C36.9138 55.587 34.9828 55.587 33.7857 56.2657C32.5885 56.9443 32.5885 58.0532 33.7857 58.7319C34.9828 59.4106 36.9138 59.4106 38.111 58.7319C39.3081 58.0532 39.3081 56.9443 38.111 56.2657Z" fill="#FFC701"/>
<path d="M42.8128 53.1112C38.9606 50.9126 32.936 50.9126 29.0838 53.1112C27.095 54.2488 26.004 55.8069 26.004 57.4989C26.004 59.1908 27.095 60.7585 29.0838 61.896C31.0051 62.9953 33.4767 63.5498 35.9483 63.5498C38.4199 63.5498 40.8915 62.9953 42.8128 61.896C44.8017 60.7585 45.8926 59.2004 45.8926 57.4989C45.8926 55.8069 44.8017 54.2392 42.8128 53.1112ZM41.9921 60.4909C38.6613 62.3931 33.2257 62.3931 29.8948 60.4909C28.437 59.6592 27.626 58.5886 27.626 57.4989C27.626 56.4091 28.4273 55.3481 29.8948 54.5069C31.5651 53.5509 33.7567 53.073 35.9483 53.073C38.1399 53.073 40.3315 53.5509 42.0018 54.5069C43.4597 55.3385 44.2707 56.4091 44.2707 57.4989C44.2707 58.5886 43.4693 59.6592 42.0018 60.4909H41.9921Z" fill="#FFC701"/>
<path d="M34.6642 8.17371C28.2148 11.1179 22.4317 20.027 21.8814 28.2574C21.6593 31.5553 22.3158 34.2128 23.6289 36.029L32.9167 53.4648L37.3675 55.6156C37.773 54.7171 44.2706 24.0801 44.5699 23.1624C45.265 21.0116 50.0248 19.6542 50.0538 17.5608C50.1889 9.89435 40.9494 5.29642 34.6642 8.16415V8.17371Z" fill="#FFC701"/>
<path d="M35.4656 9.7415C29.0163 12.6857 23.2331 21.5948 22.6828 29.8252C22.5766 31.3929 22.6828 32.7981 22.9531 34.0599C30.31 38.438 35.8228 38.1894 41.5674 42.0704C43.3535 33.84 45.2072 25.2273 45.3617 24.7493C46.0568 22.5985 49.6194 20.983 49.658 18.8896C49.7932 11.2232 41.7508 6.88333 35.4559 9.75106L35.4656 9.7415Z" fill="white"/>
<path d="M37.6088 56.2847L32.5498 53.8376L32.4725 53.6942L23.1847 36.2488C21.7944 34.3274 21.1669 31.5361 21.3889 28.2191C21.9393 19.9505 27.7997 10.7546 34.4517 7.72437C37.7923 6.19491 42.1755 6.64419 45.6126 8.8619C48.8083 10.9267 50.604 14.1003 50.5365 17.5798C50.5172 18.9372 49.0496 19.9314 47.6304 20.8873C46.4911 21.6616 45.3133 22.455 45.0333 23.3249C44.9174 23.6881 43.7009 29.2802 42.4169 35.1973C39.868 46.9359 38.0529 55.2906 37.8116 55.8259L37.6088 56.2847ZM33.2739 53.1111L37.0585 54.9369C37.6571 52.5471 39.8294 42.5196 41.461 34.9965C43.0155 27.8176 43.9713 23.4109 44.0968 23.0285C44.483 21.8527 45.796 20.9542 47.0801 20.0939C48.2966 19.2718 49.5517 18.421 49.5613 17.5703C49.6096 14.4349 47.978 11.5576 45.0816 9.68399C41.9245 7.64789 37.9178 7.22729 34.8669 8.61337C28.5044 11.5193 22.9047 20.3424 22.3737 28.286C22.171 31.3736 22.7406 33.9546 24.0247 35.7517L33.2739 53.1111Z" fill="#05142C"/>
<path d="M50.1505 18.8895C50.2857 11.2231 45.4004 7.45683 39.1152 10.3246C32.6659 13.2688 26.8827 22.1779 26.3324 30.4083C26.1103 33.7062 26.7668 36.3636 28.0799 38.1798L37.3677 55.6252L47.9685 28.0567C48.374 27.1582 48.7216 26.2405 49.0209 25.3228C49.716 23.172 50.1215 20.983 50.1602 18.88L50.1505 18.8895Z" fill="#05142C"/>
<path d="M31.5901 28.4753C31.5901 28.8548 32.0023 29.0908 32.3296 28.8986L43.6244 22.2658C43.7746 22.1777 43.8668 22.0166 43.8668 21.8425V19.8501C43.8668 19.4705 43.4545 19.2346 43.1273 19.4267L31.8324 26.0595C31.6823 26.1477 31.5901 26.3087 31.5901 26.4828V28.4753Z" fill="#FFC701"/>
<path fill-rule="evenodd" clip-rule="evenodd" d="M32.7169 38.08C32.7169 38.46 33.13 38.6959 33.4573 38.5028L42.5946 33.112C42.9438 32.906 43.158 32.5308 43.158 32.1254V20.4595L32.7169 26.6195V38.08ZM34.3529 32.1945L35.9438 31.2561C36.2031 31.1117 36.4034 30.7027 36.4034 30.3538V28.4311C36.4034 28.0822 36.1913 27.9258 35.9438 28.0702L34.3529 29.0086C34.0936 29.153 33.8933 29.5621 33.8933 29.911V31.8336C33.8933 32.1825 34.1054 32.3389 34.3529 32.1945ZM39.215 29.2178L37.6241 30.1562C37.3766 30.3006 37.1644 30.1442 37.1644 29.7953V27.8726C37.1644 27.5237 37.3648 27.1147 37.6241 26.9703L39.215 26.0319C39.4624 25.8875 39.6746 26.0439 39.6746 26.3928V28.3154C39.6746 28.6643 39.4742 29.0734 39.215 29.2178ZM37.6241 35.4345L39.215 34.4961C39.4742 34.3517 39.6746 33.9426 39.6746 33.5937V30.2237C39.6746 29.8748 39.4624 29.7184 39.215 29.8628L37.6241 30.8012C37.3648 30.9456 37.1644 31.3547 37.1644 31.7036V35.0736C37.1644 35.4225 37.3766 35.5789 37.6241 35.4345ZM36.1607 34.8981L34.5698 35.8365C34.3223 35.9809 34.1102 35.8245 34.1102 35.4756V33.553C34.1102 33.2041 34.3105 32.795 34.5698 32.6506L36.1607 31.7122C36.4082 31.5678 36.6203 31.7242 36.6203 32.0731V33.9958C36.6203 34.3447 36.42 34.7537 36.1607 34.8981ZM40.6783 32.1945L42.2692 31.2561C42.5284 31.1117 42.7288 30.7027 42.7288 30.3538V28.4311C42.7288 28.0822 42.5166 27.9258 42.2692 28.0702L40.6783 29.0086C40.419 29.153 40.2186 29.5621 40.2186 29.911V31.8336C40.2186 32.1825 40.4308 32.3389 40.6783 32.1945ZM42.2692 27.4021L40.6783 28.3405C40.4308 28.4849 40.2186 28.3285 40.2186 27.9796V26.057C40.2186 25.708 40.419 25.299 40.6783 25.1546L42.2692 24.2162C42.5166 24.0718 42.7288 24.2282 42.7288 24.5771V26.4998C42.7288 26.8487 42.5284 27.2577 42.2692 27.4021Z" fill="#FFC701"/>
<path d="M37.6088 56.2847L37.0104 55.9981L27.6453 38.4094C26.2647 36.488 25.6275 33.6967 25.8496 30.3797C26.3999 22.1111 32.2603 12.9152 38.9124 9.88494C41.8957 8.52755 44.7245 8.54667 46.8872 9.9423C49.3877 11.5578 50.7201 14.7314 50.6525 18.8896C50.6139 20.9926 50.2277 23.2008 49.4939 25.4663C49.1946 26.4031 48.8277 27.3399 48.4223 28.248L37.6186 56.2754L37.6088 56.2847ZM43.1315 9.85627C41.9439 9.85627 40.6502 10.1622 39.3179 10.7644C32.9554 13.6704 27.3557 22.4934 26.8247 30.4371C26.622 33.5246 27.1916 36.1056 28.4757 37.9027L37.2904 54.4496L47.5051 27.8848C47.9105 26.9767 48.2581 26.0781 48.5478 25.17C49.2526 23.0001 49.6291 20.8779 49.6581 18.8705C49.7256 15.1138 48.5091 12.1505 46.3368 10.7453C45.4003 10.143 44.3093 9.83715 43.1218 9.83715L43.1315 9.85627Z" fill="#05142C"/>
</svg>
