<svg width="72" height="72" viewBox="0 0 72 72" fill="none" xmlns="http://www.w3.org/2000/svg">
<path d="M53.651 38.3808L53.7313 22.305L2.68985 21.5327L2.60421 49.155C2.5507 49.4749 2.70591 49.7949 3.08589 50.0211L27.3783 64.3977C28.1169 64.8391 29.4014 64.7894 30.2577 64.2874L52.9445 50.7879C53.4422 50.4955 53.6777 38.7449 53.651 38.3863V38.3808Z" fill="#BDCCDA"/>
<path d="M28.6414 64.8501C29.2301 64.8501 29.8509 64.7067 30.3326 64.4198L53.0194 50.9203C53.6403 50.5562 53.8008 38.7449 53.8008 38.3808L53.8811 22.145L2.52928 21.3672L2.44365 49.1495C2.37943 49.5246 2.5828 49.8997 3.0056 50.1535L27.298 64.5301C27.6566 64.7453 28.1383 64.8501 28.6414 64.8501ZM53.5707 22.4595L53.4958 38.3863C53.5439 38.96 53.2549 50.2528 52.8589 50.6445L30.1774 64.144C29.3692 64.6184 28.1436 64.668 27.4532 64.2543L3.16081 49.8777C2.85575 49.6901 2.70589 49.4419 2.75406 49.1771L2.83969 21.6927L53.5707 22.4595Z" fill="#05142C"/>
<path d="M28.7752 37.8181V64.6901L27.3783 64.3922L2.58815 49.6404L2.74336 22.7298L27.7637 37.6912L28.7752 37.8181Z" fill="#05142C"/>
<path d="M27.4586 36.7698L3.16618 22.3932C2.42762 21.9518 2.52396 21.185 3.38027 20.6775L26.0671 7.17802C26.9234 6.676 28.2133 6.62635 28.9465 7.06769L53.2389 21.4443C53.9775 21.8856 53.8811 22.6525 53.0248 23.16L30.338 36.6595C29.4817 37.1615 28.1918 37.2111 27.4586 36.7698Z" fill="#BDCCDA"/>
<path d="M28.727 37.2277C29.3158 37.2277 29.9366 37.0843 30.4183 36.7974L53.1051 23.2924C53.6028 23 53.8918 22.5973 53.8918 22.1891C53.8918 21.8415 53.6885 21.5271 53.3192 21.3009L29.0267 6.92977C28.2507 6.46085 26.8913 6.5105 25.9922 7.0401L3.30535 20.5396C2.80762 20.8319 2.51861 21.2347 2.51861 21.6429C2.51861 21.9905 2.72198 22.3049 3.09126 22.5311L27.3837 36.9077C27.7423 37.1229 28.224 37.2277 28.727 37.2277ZM27.6834 6.92425C28.1276 6.92425 28.5558 7.01804 28.8715 7.20561L53.164 21.5822C53.4369 21.7477 53.5814 21.9574 53.5814 22.1891C53.5814 22.4815 53.3513 22.7794 52.9499 23.0166L30.263 36.5215C29.4549 37.0015 28.2293 37.0456 27.5389 36.6319L3.24648 22.2553C2.97353 22.0898 2.82902 21.8801 2.82902 21.6484C2.82902 21.356 3.05915 21.0581 3.46055 20.8209L26.1474 7.31594C26.5863 7.05665 27.1536 6.92425 27.6834 6.92425Z" fill="#05142C"/>
<path d="M53.7259 19.3586C53.6777 19.6621 53.4422 19.971 53.0248 20.2137L30.3379 33.7132C29.4816 34.2152 28.1918 34.2649 27.4586 33.8235L3.16613 19.4469C2.88248 19.2759 2.72728 19.0607 2.68446 18.829V22.2935C2.63094 22.6135 2.78615 22.9335 3.16613 23.1597L27.4586 37.5363C28.1971 37.9776 29.4816 37.928 30.3379 37.4259L53.0248 23.9265C53.5225 23.6341 53.758 23.2535 53.7312 22.8949V19.3531H53.7259V19.3586Z" fill="#BDCCDA"/>
<path d="M28.727 38.0055C29.3157 38.0055 29.9365 37.8621 30.4182 37.5752L53.105 24.0757C53.6402 23.7613 53.9239 23.331 53.8864 22.8952V19.37L53.576 19.3479C53.5332 19.6127 53.3138 19.8775 52.9552 20.0927L30.2683 33.5921C29.4602 34.0721 28.2346 34.1162 27.5442 33.7024L3.25176 19.3258C3.02163 19.1879 2.88248 19.0114 2.84502 18.8183L2.53995 18.8459V22.3104C2.47573 22.6855 2.6791 23.0607 3.09655 23.3144L27.389 37.691C27.7476 37.9062 28.2292 38.011 28.7323 38.011L28.727 38.0055ZM53.5707 19.9878V22.9062C53.6028 23.2206 53.3673 23.5516 52.9498 23.7999L30.263 37.2994C29.4548 37.7793 28.2292 37.8234 27.5388 37.4097L3.24641 23.0331C2.94135 22.8455 2.79149 22.5973 2.83966 22.3324V19.4086C2.91459 19.4748 2.99487 19.541 3.0912 19.5961L27.3836 33.9728C28.1597 34.4417 29.5191 34.392 30.4182 33.8624L53.105 20.363C53.2924 20.2526 53.4476 20.1258 53.5707 19.9934V19.9878Z" fill="#05142C"/>
<path d="M53.2443 18.5535L28.9465 4.17687C28.2079 3.73553 26.9234 3.78518 26.0671 4.2872L3.38027 17.7867C2.52396 18.2887 2.42762 19.0555 3.16618 19.5024L27.4586 33.879C28.1972 34.3203 29.4817 34.2707 30.338 33.7686L53.0248 20.2692C53.8811 19.7672 53.9775 19.0003 53.2389 18.5535H53.2443ZM50.1776 20.0209L29.9419 32.0585C29.2462 32.4667 28.1918 32.5108 27.5924 32.1467L5.89032 19.3313C5.2909 18.9728 5.37118 18.3438 6.06693 17.9356L26.2973 5.89809C26.993 5.48985 28.0473 5.44572 28.6468 5.80982L50.3542 18.6252C50.9536 18.9838 50.8787 19.6127 50.1776 20.0209Z" fill="#BDCCDA"/>
<path d="M28.6468 11.8837L44.8952 21.527L28.4916 31.2861C27.7958 31.6944 26.7415 31.7385 26.1421 31.3744L9.63134 21.5987L25.7674 11.9996C26.6237 11.4976 27.9135 11.4479 28.6468 11.8893V11.8837Z" fill="#E5E5E5"/>
<path d="M26.0618 4.98231C26.9181 4.48029 28.2079 4.43064 28.9411 4.87198L53.2336 19.2486C53.4316 19.37 53.5654 19.5079 53.6456 19.6623C53.5333 19.8775 53.3299 20.0871 53.0302 20.2637L30.3433 33.7631C29.487 34.2651 28.1972 34.3148 27.464 33.8735L3.17154 19.4968C2.97352 19.3755 2.83972 19.2376 2.75944 19.0831C2.87183 18.8679 3.0752 18.6583 3.37491 18.4818L26.0618 4.98231ZM5.88497 20.0265L27.5871 32.8418C28.1865 33.2004 29.2355 33.1618 29.9366 32.7536L50.1722 20.716C50.7128 20.3961 50.8787 19.9492 50.6432 19.5961C50.8626 19.2486 50.777 18.8735 50.3596 18.6252L28.6521 5.80982C28.0527 5.45123 27.0037 5.48985 26.3026 5.89809L6.06693 17.9356C5.52639 18.2556 5.36048 18.7024 5.59597 19.0555C5.37654 19.4031 5.46217 19.7782 5.87962 20.0265H5.88497Z" fill="#BDCCDA"/>
<path d="M28.727 34.3369C29.3158 34.3369 29.9366 34.1935 30.4183 33.9066L53.1051 20.4071C53.6028 20.1147 53.8918 19.712 53.8918 19.3038C53.8918 18.9562 53.6885 18.6418 53.3192 18.4211L29.0267 4.03897C28.2507 3.57004 26.8913 3.61969 25.9922 4.1493L3.30535 17.6543C2.80762 17.9467 2.51861 18.3494 2.51861 18.7576C2.51861 19.1052 2.72198 19.4196 3.09126 19.6458L27.3837 34.0224C27.7423 34.2376 28.224 34.3424 28.727 34.3424V34.3369ZM53.1693 18.6914C53.4423 18.8569 53.5868 19.0666 53.5868 19.2983C53.5868 19.5906 53.3566 19.8941 52.9552 20.1258L30.2684 33.6252C29.4602 34.1052 28.2347 34.1493 27.5443 33.7356L3.25182 19.3589C2.97888 19.1934 2.83437 18.9838 2.83437 18.7521C2.83437 18.4597 3.0645 18.1563 3.4659 17.9246L26.1474 4.42514C26.9555 3.9507 28.1811 3.90105 28.8715 4.3148L53.164 18.6914H53.1693ZM28.6307 32.555C29.1124 32.555 29.6155 32.4336 30.0222 32.1964L50.2579 20.1589C50.6753 19.9161 50.9108 19.5796 50.9162 19.2321C50.9162 18.9397 50.7449 18.6694 50.4345 18.4818L28.7217 5.67192C28.0687 5.28023 26.9716 5.31885 26.2223 5.76019L5.98666 17.7977C5.56921 18.0404 5.33373 18.3825 5.32838 18.7245C5.32838 19.0169 5.49964 19.2872 5.81005 19.4693L27.5175 32.2902C27.8172 32.4722 28.2132 32.5605 28.6253 32.5605L28.6307 32.555ZM27.6192 5.71605C27.9778 5.71605 28.3203 5.79329 28.5718 5.94224L50.2793 18.7631C50.4291 18.8514 50.6057 19.0059 50.6057 19.2321C50.6057 19.4582 50.4238 19.6955 50.108 19.883L29.8723 31.9206C29.2194 32.3067 28.2347 32.3453 27.6781 32.0088L5.97061 19.1879C5.82075 19.0997 5.64414 18.9452 5.64414 18.719C5.64414 18.4928 5.8261 18.2556 6.14187 18.068L26.3775 6.03603C26.7308 5.82639 27.1857 5.72157 27.6192 5.72157V5.71605Z" fill="#05142C"/>
<path d="M50.3489 18.6252L28.6468 5.80982C28.0473 5.45123 26.9984 5.48985 26.2973 5.89809L6.0616 17.9356C5.36584 18.3438 5.28556 18.9728 5.88498 19.3313L8.46462 20.8815L26.1206 10.3832C26.8164 9.97496 27.8707 9.93082 28.4701 10.2949L47.5926 21.5601L50.1776 20.0209C50.8734 19.6127 50.9536 18.9838 50.3542 18.6252L50.3489 18.6252Z" fill="#BDCCDA"/>
<path d="M47.5926 21.7422L50.2525 20.1589C50.67 19.9161 50.9055 19.5796 50.9108 19.232C50.9108 18.9397 50.7396 18.6693 50.4291 18.4818L28.7217 5.66639C28.0688 5.2747 26.9716 5.31332 26.2223 5.75465L5.98667 17.7922C5.56922 18.0349 5.33373 18.3769 5.32838 18.719C5.32838 19.0114 5.49964 19.2817 5.81005 19.4637L8.46996 21.0636L26.1956 10.5211C26.8485 10.1349 27.8333 10.0963 28.3899 10.4328L47.5926 21.7422ZM50.2739 18.7631C50.4238 18.8514 50.6004 19.0059 50.6004 19.232C50.6004 19.4582 50.4184 19.6954 50.1027 19.883L47.5926 21.3781L28.5451 10.157C27.8921 9.76532 26.795 9.80394 26.0457 10.2453L8.47531 20.6995L5.97596 19.1934C5.82611 19.1052 5.64949 18.9507 5.64949 18.7245C5.64949 18.4983 5.83146 18.2611 6.14723 18.0735L26.3775 6.03603C27.0305 5.64985 28.0152 5.61122 28.5718 5.94774L50.2793 18.7686L50.2739 18.7631Z" fill="#05142C"/>
<path d="M7.74205 51.003V36.2899L26.126 47.224V61.9813L7.74205 51.003Z" fill="#BDCCDA"/>
<path d="M26.238 62.1854V47.1523L26.1791 47.1192L7.62396 36.0857V51.0747L7.68284 51.1078L26.238 62.1854ZM26.0079 47.2902V61.7717L7.85945 50.9368V36.4995L26.0079 47.2902Z" fill="#05142C"/>
<path d="M8.10598 50.7382V36.4995L7.74205 36.2899V51.003L26.126 61.9813V61.5013L8.10598 50.7382Z" fill="#BDCCDA"/>
<path d="M26.238 62.1854L26.2383 61.4296L26.1795 61.3965L8.21838 50.672V36.4333L7.62967 36.0857V51.0692L7.68854 51.1023L26.2437 62.1799L26.238 62.1854ZM26.0082 61.5675L26.0079 61.7717L7.85945 50.9368V36.4995L7.98825 36.5712V50.8099L8.04712 50.843L26.0082 61.5675Z" fill="#05142C"/>
<path d="M13.9932 19.4803V15.7344L21.9516 20.3133L21.8285 24.0316L13.9932 19.4803Z" fill="#05142C"/>
<path d="M21.9516 20.3133L29.4657 15.7344V19.4417L21.8285 24.0316L21.9516 20.3133Z" fill="#BDCCDA"/>
<path d="M11.8364 20.2802L13.7685 18.901L13.9932 19.4803L21.8285 24.2136L20.2229 25.1073L11.8364 20.2802Z" fill="#BDCCDA"/>
<path d="M13.9932 15.7344L21.7964 11.001L29.4657 15.7344L21.9516 20.3133L13.9932 15.7344Z" fill="#BDCCDA"/>
<path d="M14.7372 16.2475L21.7803 11.972L29.455 16.7054L21.9409 21.2842L21.9516 20.3133L14.7372 16.2475Z" fill="#BDCCDA"/>
<path d="M13.838 15.6461L21.7964 10.819L29.6209 15.6461V19.5354L21.8285 24.2136L13.838 19.5741V15.6461ZM21.7964 11.1886L14.3037 15.7289L21.9462 20.1257L29.1606 15.7289L21.791 11.1831L21.7964 11.1886ZM29.3105 19.3534V16.0158L22.1014 20.4071L21.989 23.7502L29.3051 19.3534H29.3105ZM21.684 23.7613L21.791 20.4071L14.1431 16.0102V19.392L21.6786 23.7668L21.684 23.7613Z" fill="#05142C"/>
<path d="M22.2941 15.2434C22.9149 15.3151 23.1611 15.602 23.1611 15.9827C23.1611 16.0323 23.1772 15.9827 23.1611 16.0323L25.0289 16.9702C25.2163 16.6943 25.3233 16.3854 25.3233 16.0654C25.3233 14.8683 23.889 13.8918 22.0693 13.8091L22.2941 15.2434Z" fill="#BDCCDA"/>
<path d="M22.6152 16.6171C22.369 16.7716 22.1978 16.7771 21.8071 16.7771C21.4378 16.7771 21.2451 16.755 21.0043 16.6171L19.0562 17.4777C19.7038 18.0018 20.6939 18.3328 21.8124 18.3328C23.0059 18.3328 24.0549 17.9521 24.6918 17.3674L22.6206 16.6171H22.6152Z" fill="#BDCCDA"/>
<path d="M20.4477 15.9882C20.4263 15.9275 20.4477 16.0489 20.4477 15.9882C20.4477 15.602 20.6992 15.1496 21.3254 15.0779L21.5395 13.8146C19.7198 13.9028 18.2855 14.8793 18.2855 16.0709C18.2855 16.4405 18.4247 16.7881 18.6708 17.097L20.4477 15.9882Z" fill="#BDCCDA"/>
<path d="M22.9738 15.5524L23.0006 15.4641V15.4365C23.0006 15.3151 23.0006 14.94 22.2673 14.8517L22.1496 14.8407L21.8766 13.0919L22.0693 13.1029C24.0121 13.1967 25.4732 14.2339 25.4732 15.5193C25.4732 15.8668 25.3661 16.1978 25.152 16.5178L25.0771 16.6281L23.0862 15.6296L22.9738 15.5524ZM23.3056 15.3813L24.9647 16.2144C25.0932 15.9882 25.1574 15.7565 25.1574 15.5137C25.1574 14.46 23.889 13.5663 22.2406 13.4284L22.4172 14.5483C23.1397 14.6697 23.2896 15.0945 23.3056 15.3813Z" fill="#05142C"/>
<path d="M21.0632 15.933C21.2719 16.0544 21.4378 16.0709 21.791 16.0709C22.1817 16.0709 22.3155 16.0654 22.5189 15.933L22.5831 15.8944L24.9701 16.7605L24.772 16.9426C24.087 17.5715 22.9684 17.9521 21.7857 17.9521C20.6725 17.9521 19.6342 17.6266 18.9384 17.0584L18.7351 16.8929L20.9936 15.8944L21.0578 15.933H21.0632ZM19.3559 16.9702C19.9928 17.3949 20.8651 17.6322 21.7964 17.6322C22.7865 17.6322 23.7231 17.3563 24.3653 16.8819L22.6259 16.253C22.3637 16.3964 22.1549 16.3964 21.8017 16.3964C21.4485 16.3964 21.2344 16.3743 20.9882 16.253L19.3612 16.9702H19.3559Z" fill="#05142C"/>
<path d="M21.5234 13.1029L21.7161 13.0919L21.4485 14.6697L21.3307 14.6807C20.8009 14.7414 20.6029 15.1 20.5922 15.4034L20.6296 15.4972L20.5868 15.5248V15.5965L20.4477 15.613L18.6173 16.755L18.5317 16.6502C18.2534 16.2971 18.1142 15.9165 18.1142 15.5193C18.1142 14.2339 19.5753 13.1912 21.5181 13.1029H21.5234ZM18.6976 16.3357L20.255 15.3648L20.2871 15.2986C20.3406 14.8959 20.6189 14.4931 21.1755 14.3883L21.3361 13.4394C19.6877 13.5774 18.4193 14.4711 18.4193 15.5248C18.4193 15.8061 18.5103 16.082 18.6869 16.3412L18.6976 16.3357Z" fill="#05142C"/>
<path d="M23.1611 15.4365C23.1611 15.8723 22.551 16.2309 21.8017 16.2309C21.0525 16.2309 20.4423 15.8778 20.4423 15.4365C20.4423 15.1165 20.8009 14.289 21.2665 14.1621C21.4378 14.118 21.5983 14.6421 21.7964 14.6421C21.9944 14.6421 22.1442 14.107 22.3209 14.1566C22.7758 14.2835 23.1558 15.1165 23.1558 15.431L23.1611 15.4365Z" fill="#BDCCDA"/>
<path d="M21.8017 16.3909C22.6473 16.3909 23.3163 15.9716 23.3163 15.4365C23.3163 15.0889 22.9149 14.1621 22.369 14.0077C22.171 13.9525 22.0479 14.1401 21.9516 14.2945C21.9088 14.3552 21.8338 14.4711 21.8017 14.4876C21.7803 14.4766 21.7 14.3607 21.6572 14.3001C21.5555 14.1511 21.4271 13.9635 21.2344 14.0132C20.6992 14.1566 20.2925 15.0503 20.2925 15.442C20.2925 15.9771 20.9561 16.3964 21.8071 16.3964L21.8017 16.3909ZM22.3102 14.3276C22.6741 14.46 23.0006 15.1882 23.0006 15.442C23.0006 15.7399 22.5082 16.0764 21.7964 16.0764C21.0846 16.0764 20.5922 15.7454 20.5922 15.442C20.5922 15.1938 20.8972 14.46 21.2772 14.3332C21.3093 14.3607 21.3629 14.438 21.395 14.4876C21.4967 14.6421 21.6144 14.8131 21.7964 14.8131C21.9783 14.8131 22.1014 14.6366 22.1978 14.4821C22.2299 14.438 22.2727 14.3607 22.3048 14.3332L22.3102 14.3276Z" fill="#05142C"/>
<path d="M22.749 14.62C22.749 14.9234 22.3262 15.1717 21.8071 15.1717C21.2879 15.1717 20.8651 14.9234 20.8651 14.62C20.8651 14.3166 21.2879 14.0684 21.8071 14.0684C22.3262 14.0684 22.749 14.3166 22.749 14.62Z" fill="#BDCCDA"/>
<path d="M22.733 15.0117C22.733 15.3151 22.3102 15.5634 21.791 15.5634C21.2719 15.5634 20.8491 15.3151 20.8491 15.0117C20.8491 14.7083 21.2719 14.46 21.791 14.46C22.3102 14.46 22.733 14.7083 22.733 15.0117Z" fill="#BDCCDA"/>
<path d="M21.8017 15.3317C22.4172 15.3317 22.8989 15.0172 22.8989 14.62C22.8989 14.2228 22.4172 13.9084 21.8017 13.9084C21.1862 13.9084 20.7046 14.2228 20.7046 14.62C20.7046 15.0172 21.1862 15.3317 21.8017 15.3317ZM21.8017 14.2283C22.2513 14.2283 22.5885 14.4325 22.5885 14.62C22.5885 14.8076 22.2513 15.0117 21.8017 15.0117C21.3522 15.0117 21.015 14.8076 21.015 14.62C21.015 14.4325 21.3522 14.2283 21.8017 14.2283Z" fill="#05142C"/>
<path d="M21.8017 15.1717L21.8017 16.2309L21.2291 16.1316L20.6939 15.8944L20.4477 15.4365L20.7046 14.62L21.2933 15.1055L21.8017 15.1717Z" fill="#05142C"/>
<path d="M4.03858 48.8459V34.2265L6.52723 35.6829V50.3464L4.03858 48.8459Z" fill="#BDCCDA"/>
<path d="M6.64477 50.5561V35.6112L3.92064 34.0169V48.9121L6.64477 50.5561ZM6.41464 35.7491V50.1368L4.15612 48.7742V34.4306L6.41464 35.7547V35.7491Z" fill="#05142C"/>
<path d="M4.39716 48.5811V34.4362L4.03858 34.2265V48.8459L6.52723 50.3464V49.8665L4.39716 48.5811Z" fill="#BDCCDA"/>
<path d="M6.64477 50.5561L6.64498 49.8003L4.51491 48.5149V34.3644L3.9262 34.0169V48.9121L6.65034 50.5561H6.64477ZM6.41485 49.9382V50.1423L4.15633 48.7797V34.4362L4.28478 34.5079V48.6528L6.41485 49.9382Z" fill="#05142C"/>
<path d="M32.1256 43.8036L36.573 41.1556V37.2001L32.1256 39.8426V43.8036Z" fill="#BDCCDA"/>
<path d="M36.573 37.2001L35.1762 36.4112L30.7287 39.0592L32.1256 39.8426L36.573 37.2001Z" fill="#BDCCDA"/>
<path d="M35.9522 37.5035L35.1762 37.0842L30.7287 39.7322L31.5047 40.1515L35.9522 37.5035Z" fill="#BDCCDA"/>
<path d="M32.1256 43.8036L30.7287 43.0202L30.7287 39.0592L32.1256 39.8426V43.8036Z" fill="#05142C"/>
<path d="M30.5735 38.9654L35.1762 36.2291L36.7282 37.1063V41.2549L32.1256 43.9912L30.5735 43.114V38.9654ZM35.1762 36.5932L31.0445 39.0537L31.8526 39.5116L32.1202 39.666L36.2573 37.2056L35.1762 36.5987V36.5932ZM36.4178 41.0673V37.4759L32.2808 39.9419V43.5333L36.4178 41.0673ZM30.8839 42.9264L31.9704 43.5388V39.9419L31.6974 39.7874L30.8839 39.3295V42.9264Z" fill="#05142C"/>
<path d="M32.816 41.641C32.816 42.3417 33.2923 42.6285 33.881 42.2755C34.4697 41.9224 34.946 41.0728 34.946 40.3722C34.946 39.6716 34.4697 39.3847 33.881 39.7378C33.2923 40.0908 32.816 40.9404 32.816 41.641Z" fill="#BDCCDA"/>
<path d="M33.9078 42.0824C34.079 42.0824 34.2717 42.0272 34.459 41.9114C35.1012 41.5307 35.6043 40.6315 35.6043 39.8702C35.6043 39.473 35.4652 39.1695 35.2136 39.0206C34.9621 38.8716 34.641 38.8992 34.3038 39.0978C33.6616 39.4785 33.1585 40.3777 33.1585 41.139C33.1585 41.5362 33.2976 41.8396 33.5492 41.9886C33.6562 42.0493 33.774 42.0824 33.9024 42.0824H33.9078ZM34.8604 39.2413C34.9353 39.2413 35.0049 39.2578 35.0638 39.2909C35.2136 39.3792 35.2993 39.5833 35.2993 39.8646C35.2993 40.5156 34.855 41.3045 34.3092 41.63C34.0737 41.7679 33.8649 41.7955 33.7097 41.7072C33.5599 41.619 33.4742 41.4148 33.4742 41.1335C33.4742 40.4825 33.9185 39.6936 34.4644 39.3681C34.6089 39.2799 34.7427 39.2413 34.8604 39.2413Z" fill="#05142C"/>
<path d="M27.6138 5.56168V10.0578L28.1222 10.1461L47.5926 21.5601L50.3756 19.8831L50.7395 19.3646L50.5361 18.7246L28.6468 5.80982L27.6138 5.56168Z" fill="#05142C"/>
<path d="M28.7752 34.1549L28.7752 37.8181L27.6138 37.625L2.88784 22.9394L2.67376 22.5036L2.82362 19.1549L27.4586 33.879L28.1222 34.1218L28.7752 34.1549Z" fill="#05142C"/>
<path d="M36.6265 51.7865L31.3709 48.653V46.689L32.8909 47.6048L36.6265 50.8266V51.7865Z" fill="#05142C"/>
<path d="M36.6265 50.8266L57.9112 37.9615L54.1755 34.7398L32.8909 47.6048L36.6265 50.8266Z" fill="#BDCCDA"/>
<path d="M36.6265 50.8266L57.9112 38.6346L54.1756 35.4128L33.4689 47.9578L36.6265 50.8266Z" fill="#FFC701"/>
<path d="M31.3709 46.689L52.6556 33.824L54.1755 34.7398L32.8909 47.6048L31.3709 46.689Z" fill="#BDCCDA"/>
<path d="M31.9543 47.0476L52.6556 34.5301L54.1756 35.4459L33.4689 47.9578L31.9543 47.0476Z" fill="#BDCCDA"/>
<path d="M36.6265 51.7865L57.9112 38.9159L57.9112 37.9615L36.6265 50.8266V51.7865Z" fill="#BDCCDA"/>
<path d="M58.0183 37.9118L54.3629 34.7563L54.2398 34.6514L54.1916 34.6073L52.661 33.7026L31.2693 46.6338V48.7191L36.6266 51.9133L58.0183 38.9821V37.9118ZM36.6373 50.6996L33.0729 47.6213L54.1702 34.8666L57.7346 37.9449L36.6373 50.6996ZM52.661 33.9508L53.9722 34.7397L51.8207 36.0306L32.8909 47.4834L31.5797 46.6945L52.661 33.9508ZM31.478 48.5922V46.882L32.8321 47.6985L36.5249 50.8817V51.5989L31.478 48.5922ZM57.8149 38.8552L36.7336 51.5989V50.8927L57.8149 38.1491V38.8552Z" fill="#05142C"/>
<path d="M23.0647 57.1486L23.3484 57.0218L18.9437 47.1137L18.6601 47.2406L23.0647 57.1486Z" fill="#05142C"/>
<path d="M19.8001 53.1987L20.0784 53.0663L16.5461 45.3373L16.2624 45.4697L19.8001 53.1987Z" fill="#05142C"/>
<path d="M13.7684 52.1615L14.0467 52.0236L10.1023 43.5444L9.82404 43.6823L13.7684 52.1615Z" fill="#05142C"/>
<path d="M2.88783 22.669C2.95205 22.8014 3.06979 22.9283 3.24106 23.0331L27.5335 37.4097C27.769 37.5531 28.0633 37.6359 28.3845 37.669V37.989C28.0045 37.9503 27.6566 37.851 27.3783 37.6855L3.08585 23.3089C3.01093 23.2648 2.9467 23.2151 2.88783 23.16V22.669Z" fill="#BDCCDA"/>
<path d="M0.843392 28.0702L3.59429 26.4427C3.71203 26.382 3.85653 26.3875 4.01709 26.4813L25.9814 39.5505C26.3507 39.7711 26.6451 40.3559 26.6451 40.8635V45.6741C26.6451 45.9223 26.5701 46.1044 26.4524 46.1982C26.4524 46.1982 26.4203 46.2147 26.4042 46.2257L23.7283 47.809L21.9835 43.8756L21.063 43.2688L4.01174 33.118C3.64245 32.8973 3.34809 32.3125 3.34809 31.805V31.5678L2.1118 30.7513L0.832685 28.0646L0.843392 28.0702Z" fill="#05142C"/>
<path d="M3.61572 27.6012C3.73347 27.5405 3.87797 27.5461 4.03853 27.6398L26.0029 40.709C26.3722 40.9297 26.6665 41.5144 26.6665 42.022L22.7168 44.3169L22.0103 45.0396L21.0898 44.4328L4.03853 34.282C3.66925 34.0613 3.37489 33.4766 3.37489 32.969V32.7318L2.13859 31.9153L0.85948 29.2287L3.61037 27.6012H3.61572Z" fill="#FFC701"/>
<path d="M23.6641 48.0407L26.4899 46.3692C26.4899 46.3692 26.5327 46.3471 26.5541 46.3305C26.7147 46.1981 26.8057 45.9664 26.8057 45.6796V40.869C26.8057 40.3063 26.4792 39.6663 26.0617 39.4181L4.09739 26.3489C3.90472 26.2331 3.7067 26.2165 3.54079 26.2993L3.51404 26.3103L0.848765 27.8881C0.731022 27.9598 0.688205 28.1088 0.747077 28.2357L1.99944 30.8727L3.19826 31.6671V31.8215C3.19826 32.3842 3.52473 33.0242 3.94218 33.2724L20.9935 43.4232L21.8712 44.0025L23.6641 48.0518V48.0407ZM3.76022 26.5641C3.82444 26.5641 3.88866 26.5917 3.94218 26.6248L25.9065 39.6939C26.2277 39.8815 26.4952 40.4221 26.4952 40.869V45.6796C26.4952 45.8671 26.4471 46.0106 26.3615 46.0823L23.8032 47.5939L22.112 43.7763L21.154 43.1419L4.09739 32.9911C3.77628 32.8035 3.50868 32.2629 3.50868 31.816V31.4905L2.24027 30.652L1.04679 28.1364L3.56755 26.6468L3.57826 26.6579L3.66924 26.5917C3.70135 26.5751 3.73346 26.5696 3.76557 26.5696L3.76022 26.5641Z" fill="#05142C"/>
<path d="M1.30354 34.7286L23.2679 47.7977C23.6372 48.0184 23.9315 47.7867 23.9315 47.2792V42.4686C23.9315 41.961 23.6318 41.3762 23.2679 41.1556L1.30354 28.0864C0.934252 27.8658 0.639893 28.0975 0.639893 28.605V33.4156C0.639893 33.9231 0.939604 34.5079 1.30354 34.7286Z" fill="#05142C"/>
<path d="M46.1408 60.6756C46.4137 60.5598 46.7616 60.637 47.0988 60.946C47.7464 61.5363 48.1317 62.7168 47.9604 63.5885C47.8909 63.9471 47.7357 64.1898 47.5376 64.3167L46.4298 64.9401L45.0169 61.299L46.1354 60.6756H46.1408Z" fill="#BDCCDA"/>
<path d="M46.2586 64.7965C46.3228 64.9565 46.5101 65.0282 46.6546 64.9454L47.6822 64.3772V64.3607C47.8748 64.2007 48.0086 63.9414 48.0729 63.6159C48.2495 62.7112 47.8481 61.4754 47.1737 60.8631C46.8526 60.5707 46.5047 60.4603 46.1997 60.5376L46.189 60.521L46.0819 60.5762L45.0009 61.1775C44.9259 61.2161 44.8938 61.3099 44.9259 61.3871L46.2479 64.7965H46.2586ZM47.4199 64.2614L46.494 64.7744L45.1668 61.3485L46.1943 60.7803C46.4405 60.6755 46.7456 60.7638 47.0346 61.0286C47.6554 61.5913 48.0247 62.7277 47.8641 63.5607C47.8053 63.8697 47.6768 64.0959 47.4895 64.2172L47.4253 64.2614H47.4199Z" fill="#05142C"/>
<path d="M44.5031 61.9997C44.594 61.5363 44.8188 61.2218 45.1399 61.1115C45.4557 61.0011 45.825 61.1115 46.1675 61.4259C46.8419 62.0383 47.2433 63.274 47.0666 64.1788C46.9757 64.6422 46.7509 64.9566 46.4298 65.067C46.3495 65.0945 46.2639 65.1056 46.1782 65.1056C45.9267 65.1056 45.6591 64.9842 45.3968 64.7525C44.7225 64.1402 44.3211 62.9044 44.4977 61.9997H44.5031Z" fill="#05142C"/>
<path d="M44.3429 61.9111L47.5594 60.041L43.9736 58.1818L44.1663 60.6754L44.3429 61.9111Z" fill="#BDCCDA"/>
<path d="M44.4178 61.9994L47.7949 60.0355L43.8452 57.9887L44.0592 60.6809L44.2359 61.9001C44.2466 61.9884 44.3482 62.038 44.4232 61.9939L44.4178 61.9994ZM47.3186 60.0465L44.4285 61.7291L44.2733 60.6588L44.0967 58.3804L47.3186 60.0465Z" fill="#05142C"/>
<path d="M54.2279 68.0458L57.4444 66.1756L53.8533 64.322L54.0513 66.81L54.2279 68.0458Z" fill="#BDCCDA"/>
<path d="M54.4099 68.0733L57.6799 66.1701L53.7302 64.1234L53.9443 66.821L54.0995 67.9134C54.1209 68.0623 54.2814 68.1451 54.4152 68.0733H54.4099ZM57.2036 66.1811L54.3135 67.8637L54.1583 66.7935L53.9817 64.515L57.2036 66.1811Z" fill="#05142C"/>
<path d="M50.6477 56.8633L42.6198 49.4709L49.604 45.3058L49.8021 45.1899C50.1713 44.9747 50.3212 44.903 50.6209 45.074L63.3585 52.7368C63.5244 52.8361 63.6689 53.0457 63.7224 53.2609L64.5895 58.1598L66.7088 60.4271C66.8533 60.6202 66.5269 60.9512 66.5269 61.1498L66.3128 63.5882L66.1041 64.3882L66.3717 64.6364L66.3395 64.984L65.3334 64.6254L65.3227 63.9137C65.2477 63.3565 65.0658 62.3028 64.2576 61.7787C62.8126 60.8464 62.7377 63.1524 62.6949 63.6048C62.6842 63.7482 62.5771 63.7979 62.4487 63.7261L60.7735 62.7607L60.5809 62.9869L56.9415 62.7166L51.1882 57.3653L50.6637 57.0619V56.8744L50.6477 56.8633Z" fill="#BDCCDA"/>
<path d="M50.6048 57.3764L42.9034 50.177L49.8877 46.0119L50.0857 45.896C50.455 45.6809 50.6048 45.6092 50.9046 45.7802L62.7859 52.9409C62.9518 53.0402 63.0963 53.2499 63.1498 53.465L64.0168 58.3639L66.666 60.9402C66.8105 61.1333 66.484 61.4643 66.484 61.6629L66.27 64.1013L66.0612 64.9012L66.3288 65.1495L66.2967 65.497L65.2906 65.1384L65.2799 64.4268C65.2049 63.8696 65.023 62.8159 64.2148 62.2918C62.7698 61.3595 62.6949 63.6655 62.6521 64.1178C62.6414 64.2613 62.5343 64.3109 62.4059 64.2392L60.7307 63.2738L60.538 63.5L56.8987 63.2296L51.1454 57.8784L50.6209 57.575V57.3874L50.6048 57.3764Z" fill="#FFC701"/>
<path d="M66.4411 65.1605L66.4999 64.5813L66.243 64.3385L66.4304 63.6158L66.6498 61.1554C66.6498 61.0947 66.698 61.0009 66.7408 60.9237C66.8318 60.7471 66.9441 60.5209 66.805 60.3389L64.7017 58.0881L63.84 53.2278C63.7758 52.9685 63.6099 52.7258 63.4172 52.6099L50.6796 44.9472C50.321 44.7431 50.1177 44.8424 49.7377 45.063L49.5396 45.1789L42.4055 49.4378L50.5191 56.913V57.1171L51.1131 57.4591L56.8772 62.8269L60.6235 63.1083L60.7894 62.9097L62.3736 63.8255C62.4753 63.8861 62.577 63.8917 62.6626 63.8475C62.7482 63.8034 62.7964 63.7151 62.8071 63.6048L62.8178 63.4889C62.8499 63.0752 62.9355 61.9774 63.4172 61.7291C63.6099 61.6298 63.8668 61.6794 64.1772 61.878C64.8783 62.3304 65.0817 63.2076 65.1834 63.9192L65.1941 64.7081L66.4411 65.155V65.1605ZM66.2323 64.6861L66.2216 64.7964L65.451 64.5206L65.4402 63.9027C65.376 63.4338 65.2101 62.2311 64.3163 61.6574C63.9256 61.4036 63.5885 61.354 63.3048 61.4974C62.6947 61.8118 62.6037 62.9814 62.5663 63.4779L62.5556 63.5882L62.5449 63.6269C62.5449 63.6269 62.5288 63.6269 62.502 63.6103L60.7359 62.5897L60.5165 62.849L56.9895 62.5842L51.2683 57.2605L50.7866 56.9737V56.8082L42.8444 49.4985L49.8715 45.3058C50.23 45.1016 50.321 45.0575 50.5619 45.1899L63.2941 52.8527C63.4279 52.9354 63.551 53.1175 63.5938 53.294L64.4662 58.2205L66.6123 60.5209C66.6391 60.5595 66.5642 60.703 66.5106 60.8078C66.4518 60.9292 66.3929 61.0395 66.3929 61.1498L66.1788 63.5772L65.954 64.4323L66.2323 64.6916V64.6861Z" fill="#05142C"/>
<path d="M56.2507 66.4402C56.5237 66.3244 56.8716 66.4016 57.2087 66.7105C57.8563 67.3008 58.2416 68.4814 58.0704 69.3531C58.0008 69.7117 57.8456 69.9544 57.6476 70.0813L56.5397 70.7047L55.1268 67.0636L56.2454 66.4402H56.2507Z" fill="#BDCCDA"/>
<path d="M56.3792 70.5943C56.4327 70.7378 56.5986 70.7984 56.7324 70.7267L57.7921 70.1364C57.9901 69.9765 58.1186 69.7006 58.1828 69.3751C58.3594 68.4704 57.958 67.2346 57.2837 66.6223C56.9679 66.3354 56.62 66.2196 56.315 66.2968V66.2747L56.1972 66.3299L55.1964 66.8871C55.0787 66.9533 55.0251 67.0967 55.0787 67.2291L56.3792 70.5888V70.5943ZM57.5245 70.0261L56.5986 70.5392L55.2713 67.1133L56.2989 66.545C56.5504 66.4347 56.8501 66.523 57.1391 66.7933C57.76 67.356 58.1293 68.4924 57.9687 69.3255C57.9098 69.6344 57.776 69.8606 57.5941 69.982L57.5298 70.0261H57.5245Z" fill="#05142C"/>
<path d="M54.6129 67.7643C54.7039 67.3009 54.9287 66.9864 55.2498 66.8761C55.5656 66.7658 55.9349 66.8761 56.2774 67.1906C56.9517 67.8029 57.3531 69.0387 57.1765 69.9434C57.0855 70.4068 56.8607 70.7213 56.5396 70.8316C56.4593 70.8592 56.3737 70.8757 56.2881 70.8757C56.0365 70.8757 55.7689 70.7544 55.5067 70.5227C54.8324 69.9103 54.431 68.6746 54.6076 67.7698L54.6129 67.7643Z" fill="#05142C"/>
<path d="M66.9331 65.5023L59.2798 70.0536L56.9089 62.6723L58.7768 61.5855L64.5622 58.1265L66.6816 60.3938C66.8261 60.5869 66.9171 60.8241 66.9171 61.0283L66.9385 65.5023H66.9331Z" fill="#BDCCDA"/>
<path d="M66.5531 65.7782L59.2959 70.0923L57.2943 63.0915L64.5515 58.7774L66.3016 60.6697C66.4461 60.8628 66.5371 61.1 66.5371 61.3041L66.5585 65.7782H66.5531Z" fill="#FFC701"/>
<path d="M59.3654 70.1586L67.0615 65.5797L67.0401 61.0284C67.0401 60.7967 66.9438 60.5264 66.7779 60.3112L64.5782 57.9556L58.7072 61.4697L56.7483 62.6117L59.3601 70.1586H59.3654ZM66.8046 65.4307L59.3547 69.8607L57.0641 62.7386L58.841 61.7014L64.5408 58.2921L66.5906 60.4877C66.7083 60.6477 66.7886 60.8574 66.7886 61.0284L66.8046 65.4307Z" fill="#05142C"/>
<path d="M56.893 55.2966L60.4306 53.1892C60.6179 53.0789 60.5912 52.8858 60.3771 52.7589L59.098 51.9976C58.8839 51.8707 58.5574 51.8542 58.3755 51.9645L54.8378 54.0719C54.6505 54.1822 54.6773 54.3753 54.8914 54.5022L56.1705 55.2635C56.3846 55.3904 56.711 55.407 56.893 55.2966Z" fill="#BDCCDA"/>
<path d="M56.5772 55.5007C56.7164 55.5007 56.8555 55.4676 56.9572 55.407L60.4948 53.2996C60.6179 53.2278 60.6822 53.1175 60.6822 52.9961C60.6822 52.8582 60.5912 52.7313 60.4413 52.6376L59.1622 51.8762C58.9107 51.7273 58.536 51.7107 58.3059 51.8431L54.7683 53.9505C54.6452 54.0223 54.581 54.1326 54.581 54.254C54.581 54.3919 54.6719 54.5188 54.8218 54.6125L56.1009 55.3739C56.2401 55.4566 56.4113 55.4952 56.5772 55.4952V55.5007ZM56.8288 55.1808C56.6843 55.269 56.406 55.2525 56.2347 55.1477L54.9556 54.3864C54.8753 54.3422 54.8432 54.2871 54.8432 54.2595C54.8432 54.2264 54.886 54.1988 54.9021 54.1878L58.4397 52.0804C58.5896 51.9921 58.8625 52.0086 59.0391 52.1135L60.3182 52.8748C60.4039 52.9244 60.4306 52.9741 60.4306 53.0017C60.4306 53.0348 60.3878 53.0623 60.3717 53.0734L56.8341 55.1808H56.8288Z" fill="#05142C"/>
<path d="M57.8296 54.3146L58.6591 53.8181C58.7019 53.7905 58.6966 53.7464 58.6484 53.7188L58.3487 53.5423C58.3005 53.5147 58.2203 53.5092 58.1775 53.5368L57.3479 54.0333C57.3051 54.0609 57.3104 54.105 57.3586 54.1326L57.6583 54.3091C57.7065 54.3367 57.7868 54.3422 57.8296 54.3146Z" fill="#BDCCDA"/>
<path d="M57.8777 54.1547C57.9259 54.1547 57.9687 54.1436 58.0062 54.1216L58.8357 53.625C58.8893 53.5919 58.9214 53.5423 58.9214 53.4816C58.9214 53.4209 58.8839 53.3602 58.825 53.3271L58.5253 53.1506C58.4397 53.101 58.322 53.0954 58.247 53.1451L57.4175 53.6416C57.364 53.6747 57.3318 53.7243 57.3318 53.785C57.3318 53.8457 57.3693 53.9064 57.4282 53.9395L57.7279 54.116C57.7707 54.1436 57.8242 54.1547 57.8777 54.1547ZM57.8992 53.9229C57.8992 53.9229 57.8563 53.9229 57.8403 53.9174L57.6155 53.785L58.3594 53.3437C58.3594 53.3437 58.4022 53.3437 58.4183 53.3492L58.6431 53.4816L57.9045 53.9229H57.8992Z" fill="#05142C"/>
<path d="M60.0186 66.0763L60.5913 65.7343C60.6394 65.7067 60.6876 65.7067 60.725 65.7288C60.7679 65.7563 60.7946 65.8115 60.7946 65.8777V66.9976C60.7946 67.1134 60.725 67.2459 60.6394 67.301L60.0668 67.6431C60.0668 67.6431 60.0132 67.6651 59.9918 67.6651C59.9704 67.6651 59.9544 67.6651 59.933 67.6486C59.8901 67.621 59.8634 67.5658 59.8634 67.4996V66.3797C59.8634 66.2639 59.933 66.1315 60.0186 66.0763Z" fill="#BDCCDA"/>
<path d="M59.9865 67.781C60.0293 67.781 60.0775 67.7699 60.1203 67.7424L60.6876 67.4003C60.8107 67.3286 60.8963 67.1576 60.8963 66.9976V65.8777C60.8963 65.7674 60.8481 65.6736 60.7732 65.6294C60.6983 65.5853 60.6127 65.5908 60.527 65.635L59.9544 65.977C59.8313 66.0487 59.7456 66.2197 59.7456 66.3797V67.4996C59.7456 67.61 59.7938 67.7037 59.8687 67.7479C59.9009 67.7699 59.9437 67.781 59.9811 67.781H59.9865ZM60.6501 65.8336C60.6501 65.8336 60.6769 65.8501 60.6769 65.8777V66.9976C60.6769 67.0803 60.6234 67.1741 60.5752 67.2017L60.0025 67.5438C60.0025 67.5438 59.9704 67.5327 59.9704 67.4996V66.3797C59.9704 66.297 60.0239 66.2032 60.0721 66.1756L60.6448 65.8336H60.6501Z" fill="#05142C"/>
<path d="M59.9597 68.272L60.6394 67.8637C60.6715 67.8417 60.709 67.8417 60.7358 67.8637C60.7679 67.8803 60.7839 67.9189 60.7839 67.9685V68.1065C60.7839 68.1837 60.7411 68.2664 60.6822 68.2995L60.0025 68.7078C60.0025 68.7078 59.9651 68.7243 59.949 68.7243C59.933 68.7243 59.9223 68.7243 59.9062 68.7133C59.8741 68.6968 59.858 68.6581 59.858 68.6085V68.4706C59.858 68.3933 59.9009 68.3161 59.9597 68.2775V68.272Z" fill="#BDCCDA"/>
<path d="M59.9544 68.8292C59.9918 68.8292 60.0293 68.8181 60.0668 68.7961L60.7465 68.3933C60.8374 68.3382 60.9017 68.2223 60.9017 68.1009V67.963C60.9017 67.8748 60.8642 67.7975 60.7946 67.7589C60.7304 67.7203 60.6555 67.7258 60.5859 67.7589L59.9009 68.1672C59.8099 68.2223 59.7456 68.3382 59.7456 68.4595V68.5975C59.7456 68.6857 59.7831 68.763 59.8527 68.8016C59.8794 68.8181 59.9169 68.8292 59.949 68.8292H59.9544ZM60.6983 67.963L60.6769 68.1009C60.6769 68.1396 60.6555 68.1837 60.6341 68.1947L59.9544 68.603L59.9758 68.4651C59.9758 68.4264 59.9972 68.3878 60.0186 68.3713L60.7036 67.963H60.6983Z" fill="#05142C"/>
<path d="M65.7077 62.7332L66.2804 62.3911C66.3285 62.3635 66.3713 62.3635 66.4142 62.3856C66.457 62.4132 66.4837 62.4684 66.4837 62.5346V63.6545C66.4837 63.7703 66.4142 63.9027 66.3285 63.9579L65.7559 64.2999C65.7559 64.2999 65.7024 64.322 65.6809 64.322C65.6595 64.322 65.6435 64.322 65.6221 64.3054C65.5793 64.2779 65.5525 64.2227 65.5525 64.1565V63.0366C65.5525 62.9207 65.6221 62.7883 65.7077 62.7332Z" fill="#BDCCDA"/>
<path d="M65.6756 64.4323C65.7184 64.4323 65.7666 64.4213 65.8094 64.3937L66.382 64.0572C66.5051 63.9855 66.5908 63.8144 66.5908 63.6545V62.5346C66.5908 62.4242 66.5426 62.3304 66.4677 62.2863C66.3927 62.2422 66.3071 62.2477 66.2215 62.2918L65.6542 62.6283C65.5311 62.7001 65.4455 62.8711 65.4455 63.0311V64.151C65.4455 64.2613 65.4936 64.3551 65.5686 64.4047C65.6007 64.4268 65.6435 64.4378 65.6809 64.4378L65.6756 64.4323ZM66.3392 62.4849C66.3392 62.4849 66.366 62.5015 66.366 62.529V63.6489C66.366 63.7317 66.3125 63.8255 66.2643 63.8531L65.697 64.1896C65.697 64.1896 65.6649 64.1785 65.6649 64.1454V63.0255C65.6649 62.9428 65.7184 62.849 65.7666 62.8214L66.3392 62.4849C66.3392 62.4849 66.3446 62.4849 66.3499 62.4849H66.3392Z" fill="#05142C"/>
<path d="M65.6488 64.9233L66.3285 64.5151C66.3606 64.493 66.3981 64.493 66.4249 64.5151C66.457 64.5316 66.473 64.5702 66.473 64.6199V64.7578C66.473 64.835 66.4302 64.9178 66.3713 64.9509L65.6916 65.3591C65.6916 65.3591 65.6542 65.3757 65.6381 65.3757C65.6221 65.3757 65.6114 65.3757 65.5953 65.3646C65.5632 65.3481 65.5471 65.3095 65.5471 65.2598V65.1219C65.5471 65.0447 65.59 64.9674 65.6488 64.9288V64.9233Z" fill="#BDCCDA"/>
<path d="M65.6435 65.486C65.6809 65.486 65.7184 65.475 65.7505 65.4584L66.4356 65.0502C66.5266 64.995 66.5908 64.8792 66.5908 64.7578V64.6199C66.5908 64.5316 66.5533 64.4544 66.4837 64.4158C66.4195 64.3771 66.3446 64.3827 66.275 64.4158L65.59 64.824C65.499 64.8792 65.4348 65.0005 65.4348 65.1164V65.2543C65.4348 65.3426 65.4722 65.4198 65.5418 65.4584C65.5739 65.475 65.606 65.486 65.6381 65.486H65.6435ZM66.3874 64.6199L66.366 64.7578C66.366 64.7964 66.3446 64.835 66.3232 64.8516L65.6435 65.2598L65.6649 65.1219C65.6649 65.0833 65.6863 65.0447 65.7077 65.0281L66.3874 64.6199Z" fill="#05142C"/>
<path d="M62.6251 66.1149L63.4011 65.6515C63.4011 65.6515 63.4279 65.6405 63.4386 65.6515C63.4493 65.657 63.46 65.6736 63.46 65.6956V66.1535C63.46 66.1866 63.4386 66.2308 63.4118 66.2473L62.6358 66.7107C62.6358 66.7107 62.6197 66.7162 62.6144 66.7162C62.609 66.7162 62.6037 66.7162 62.5983 66.7162C62.5876 66.7107 62.5769 66.6942 62.5769 66.6721V66.2142C62.5769 66.1811 62.5983 66.137 62.6251 66.1204V66.1149Z" fill="#BDCCDA"/>
<path d="M62.8284 66.4569C62.8552 66.4569 62.882 66.4514 62.9087 66.4349L63.6847 65.9715C63.7436 65.9329 63.7864 65.8556 63.7864 65.7784V65.3205C63.7864 65.2598 63.7597 65.2046 63.7115 65.1771C63.6633 65.1495 63.6045 65.1495 63.5617 65.1771L62.7856 65.6405C62.7268 65.6791 62.6839 65.7563 62.6839 65.8335V66.2914C62.6839 66.3521 62.7107 66.4073 62.7589 66.4349L62.7856 66.4514H62.8338L62.8284 66.4569ZM63.5617 65.4474V65.7839L62.9034 66.1756V65.8391L63.5617 65.4474Z" fill="#05142C"/>
<path d="M42.4696 49.3771C42.5713 49.3165 42.7051 49.322 42.8389 49.3992L55.7477 57.1668C55.9458 57.2826 56.1117 57.5198 56.1706 57.7846L57.0322 62.6449L59.1355 64.8957C59.3014 65.1109 59.3978 65.3812 59.3978 65.6129L59.4138 70.1311L59.2586 70.2249L59.1944 70.1918L57.5781 69.3257C57.4657 69.2595 57.3908 69.1326 57.3908 69.0112L57.3266 68.4926C57.2516 67.952 56.9198 66.9093 56.1598 66.4183C55.7585 66.1591 55.4106 66.1149 55.1323 66.2915C54.6613 66.5838 54.4472 67.4555 54.4686 67.8251V67.8913C54.4686 68.0016 54.4151 68.1009 54.3188 68.1561C54.2278 68.2113 54.1154 68.2113 54.0244 68.1561L47.4737 64.2282C47.3934 64.1785 47.3399 64.0903 47.3292 63.9965L47.3077 63.6324C47.3077 63.6048 47.3077 63.5772 47.3077 63.5496C47.3077 63.5165 47.3077 63.4834 47.3077 63.4393C47.3185 62.6504 47.0723 61.1554 46.0875 60.5761C45.6968 60.3499 45.3864 60.2892 45.1509 60.4051C44.7388 60.6092 44.6318 61.3264 44.5836 61.6684C44.5729 61.7291 44.5676 61.7843 44.5622 61.8174C44.5408 61.9167 44.4873 61.9939 44.407 62.0325C44.3214 62.0711 44.2143 62.0601 44.118 61.9994L42.7532 61.1885C42.5178 61.0506 42.3304 60.7195 42.3304 60.4382V49.7081C42.3304 49.5537 42.3893 49.4323 42.4964 49.3661L42.4696 49.3771Z" fill="#05142C"/>
<path d="M60.5592 55.9476L62.9194 54.5518C62.989 54.5132 63.0693 54.5077 63.1388 54.5408C63.2084 54.5739 63.2619 54.6401 63.2726 54.7228L63.7169 57.233C63.749 57.4095 63.6687 57.586 63.5188 57.6743L61.2443 59.0369C61.2014 59.0645 61.1586 59.0755 61.1105 59.0755C61.073 59.0755 61.0355 59.07 61.0034 59.0535C60.9231 59.0149 60.8696 58.9431 60.8536 58.8549L60.3773 56.3558C60.3451 56.1958 60.4201 56.0303 60.5592 55.9476Z" fill="#BDCCDA"/>
<path d="M61.1158 59.1914C61.18 59.1914 61.2496 59.1748 61.3031 59.1362L63.5777 57.7736C63.765 57.6577 63.8667 57.4371 63.8292 57.2109L63.385 54.7008C63.3636 54.5849 63.2941 54.4856 63.187 54.436C63.08 54.3863 62.9622 54.3918 62.8605 54.4525L60.5003 55.8483C60.3184 55.9531 60.2274 56.1682 60.2649 56.3779L60.7412 58.8769C60.7679 59.0038 60.8429 59.1031 60.9553 59.1583C61.0034 59.1804 61.0569 59.1914 61.1105 59.1914H61.1158ZM63.0372 54.6346C63.0372 54.6346 63.0746 54.6346 63.0907 54.6456C63.1281 54.6622 63.1549 54.7008 63.1656 54.7449L63.6098 57.255C63.6312 57.3819 63.5724 57.5088 63.4653 57.575L61.1907 58.9376C61.1479 58.9652 61.0944 58.9652 61.0516 58.9431C61.0034 58.9211 60.9713 58.8825 60.966 58.8273L60.4896 56.3282C60.4682 56.2124 60.5164 56.102 60.6127 56.0413L62.9729 54.6456C62.9729 54.6456 63.0158 54.6291 63.0372 54.6291V54.6346Z" fill="#05142C"/>
<path d="M61.4369 65.155L64.8354 63.1303C64.8943 63.0917 64.9585 63.0917 65.0067 63.1193C65.0655 63.1524 65.0977 63.2241 65.0977 63.3179V65.326C65.0977 65.4805 65.0067 65.657 64.8889 65.7287L61.4905 67.7534C61.4583 67.7754 61.4209 67.781 61.3941 67.781C61.3674 67.781 61.3406 67.7754 61.3192 67.7589C61.2603 67.7258 61.2282 67.6541 61.2282 67.5603V65.5522C61.2282 65.3977 61.3192 65.2212 61.4369 65.1495V65.155Z" fill="#BDCCDA"/>
<path d="M61.3942 67.8968C61.4477 67.8968 61.4959 67.8802 61.5494 67.8527L64.9479 65.828C65.0977 65.7397 65.2101 65.5246 65.2101 65.326V63.3179C65.2101 63.1855 65.1566 63.0752 65.0656 63.02C64.98 62.9703 64.8783 62.9703 64.782 63.031L61.3835 65.0557C61.2336 65.1439 61.1212 65.3591 61.1212 65.5577V67.5658C61.1212 67.6982 61.1748 67.8085 61.2658 67.8637C61.3032 67.8857 61.3514 67.9023 61.3942 67.9023V67.8968ZM64.9318 63.2131C64.9318 63.2131 64.9425 63.2131 64.9532 63.2131C64.9746 63.2241 64.9853 63.2627 64.9853 63.3124V65.3205C64.9853 65.4363 64.9158 65.5742 64.8355 65.6239L61.437 67.6485C61.437 67.6485 61.4049 67.6651 61.3942 67.6651C61.3567 67.6485 61.3407 67.6099 61.3407 67.5603V65.5522C61.3407 65.4363 61.4103 65.2984 61.4905 65.2488L64.889 63.2241C64.889 63.2241 64.9158 63.2076 64.9318 63.2076V63.2131Z" fill="#05142C"/>
<path d="M57.0646 58.0494L59.4248 56.6536C59.4944 56.615 59.5747 56.6095 59.6443 56.6426C59.7138 56.6757 59.7674 56.7419 59.7781 56.8247L60.2223 59.3348C60.2544 59.5113 60.1741 59.6878 60.0243 59.7761L57.7497 61.1387C57.7069 61.1663 57.664 61.1774 57.6159 61.1774C57.5784 61.1774 57.541 61.1718 57.5088 61.1553C57.4286 61.1167 57.375 61.045 57.359 60.9567L56.8827 58.4576C56.8506 58.2976 56.9255 58.1321 57.0646 58.0494Z" fill="#BDCCDA"/>
<path d="M57.6212 61.2877C57.6855 61.2877 57.7497 61.2711 57.8085 61.2325L60.0831 59.8699C60.2704 59.754 60.3721 59.5334 60.3347 59.3072L59.8905 56.7971C59.869 56.6812 59.7941 56.5819 59.6924 56.5323C59.5854 56.4826 59.4676 56.4881 59.366 56.5488L57.0058 57.9446C56.8238 58.0494 56.7328 58.2645 56.7703 58.4742L57.2466 60.9732C57.268 61.1001 57.3483 61.1994 57.4607 61.2546C57.5088 61.2767 57.5624 61.2877 57.6159 61.2877H57.6212ZM59.5426 56.7309C59.5426 56.7309 59.58 56.7309 59.5961 56.7419C59.6336 56.7585 59.6603 56.7971 59.671 56.8412L60.1152 59.3513C60.1366 59.4782 60.0778 59.6051 59.9707 59.6713L57.6962 61.0339C57.6533 61.0615 57.5998 61.0615 57.557 61.0394C57.5088 61.0174 57.4767 60.9788 57.4714 60.9236L56.9951 58.4245C56.9736 58.3142 57.0218 58.1983 57.1181 58.1376L59.4784 56.7419C59.4784 56.7419 59.5212 56.7254 59.5426 56.7254V56.7309Z" fill="#05142C"/>
<path d="M55.6945 62.2145C55.7587 62.2145 55.8122 62.198 55.8604 62.1594C55.9728 62.0711 56.0102 61.8946 55.9621 61.696L55.3519 58.3914C55.2877 58.1432 55.1272 57.906 54.9345 57.7956L54.501 57.5198C54.3886 57.4536 54.2762 57.4481 54.1906 57.4977C54.1049 57.5474 54.0514 57.6522 54.0514 57.7791V60.6809C54.0514 61.0284 54.2816 61.4312 54.5706 61.6077L55.4911 62.1594C55.5607 62.198 55.6302 62.22 55.6945 62.22V62.2145ZM55.1379 58.4411L55.748 61.7401C55.7801 61.867 55.7587 61.9497 55.7266 61.9718C55.7052 61.9883 55.657 61.9828 55.6035 61.9497L54.6829 61.3981C54.4635 61.2657 54.2762 60.9347 54.2762 60.6698V57.768C54.2762 57.7184 54.2869 57.6908 54.303 57.6853C54.3137 57.6798 54.3458 57.6853 54.3886 57.7074L54.8221 57.9832C54.9612 58.0659 55.0897 58.2535 55.1379 58.4356V58.4411Z" fill="#BDCCDA"/>
<path d="M53.1416 66.3576C53.2058 66.3576 53.27 66.341 53.3289 66.3079C53.4466 66.2362 53.5162 66.1149 53.5162 65.9769V57.4536C53.5162 57.2384 53.4038 57.0454 53.2272 56.935L51.3112 55.8096C51.2149 55.7544 51.1025 55.7544 51.0062 55.8096C50.9098 55.8648 50.8563 55.9696 50.8563 56.0854V64.6915C50.8563 64.9122 50.9741 65.1163 51.156 65.2322L52.965 66.3079C53.0238 66.341 53.0881 66.3576 53.1523 66.3576H53.1416ZM51.156 55.9972C51.156 55.9972 51.1828 55.9972 51.1988 56.0082L53.1148 57.1336C53.2272 57.1998 53.2914 57.3212 53.2914 57.4481V65.9714C53.2914 66.0266 53.2647 66.0762 53.2165 66.1038C53.1683 66.1314 53.1148 66.1314 53.0667 66.1038L51.2631 65.0281C51.1453 64.9563 51.0704 64.8295 51.0704 64.686V56.0799C51.0704 56.0358 51.0971 56.0137 51.1132 56.0027C51.1186 56.0027 51.1346 55.9917 51.156 55.9917V55.9972Z" fill="#BDCCDA"/>
<path d="M52.8633 62.4297C52.8954 62.4297 52.9275 62.4186 52.9596 62.4021C53.0292 62.358 53.0667 62.2752 53.0667 62.1704V61.8559C53.0667 61.696 52.9757 61.5194 52.8526 61.4477L52.0605 60.9788C51.9909 60.9346 51.9106 60.9346 51.8464 60.9677C51.7768 61.0119 51.734 61.0946 51.734 61.1995V61.5139C51.734 61.6739 51.825 61.8504 51.9481 61.9221L52.7402 62.3911C52.7777 62.4131 52.8205 62.4242 52.8579 62.4242L52.8633 62.4297ZM51.9642 61.1884L52.7455 61.6518C52.7937 61.6794 52.8472 61.7787 52.8472 61.8615V62.1759C52.8472 62.1759 52.8472 62.209 52.8419 62.2145L52.0658 61.7291C52.0177 61.7015 51.9642 61.6022 51.9642 61.5194V61.1884Z" fill="#BDCCDA"/>
<path d="M56.1226 70.0593C56.1761 70.0593 56.2297 70.0483 56.2832 70.0317C56.4812 69.96 56.6257 69.7669 56.6792 69.4856C56.7863 68.9394 56.5508 68.2278 56.1494 67.8637C55.9406 67.6706 55.7159 67.6044 55.5125 67.6761C55.3145 67.7478 55.1753 67.9409 55.1165 68.2223C55.0094 68.7684 55.2449 69.4801 55.6463 69.8442C55.8015 69.9876 55.9674 70.0593 56.1226 70.0593ZM55.6677 67.8747C55.7694 67.8747 55.8818 67.9299 55.9995 68.0347C56.342 68.3491 56.5508 68.9781 56.4598 69.4415C56.4223 69.6401 56.3313 69.7725 56.2136 69.8166C56.0905 69.8607 55.946 69.8056 55.7961 69.6732C55.4536 69.3587 55.2449 68.7298 55.3359 68.2664C55.3733 68.0678 55.4643 67.9354 55.5821 67.8913C55.6088 67.8802 55.6409 67.8747 55.6677 67.8747Z" fill="#BDCCDA"/>
<path d="M45.9914 64.2943C46.0449 64.2943 46.0984 64.2833 46.152 64.2668C46.35 64.195 46.4891 64.002 46.548 63.7206C46.655 63.1744 46.4196 62.4628 46.0182 62.0987C45.8094 61.9056 45.5847 61.8394 45.3813 61.9111C45.1833 61.9828 45.0441 62.1759 44.9852 62.4573C44.8782 62.9979 45.1137 63.7151 45.5151 64.0792C45.6703 64.2226 45.8362 64.2943 45.9914 64.2943ZM45.5365 62.1097C45.6382 62.1097 45.7506 62.1649 45.8683 62.2697C46.2108 62.5842 46.4196 63.2131 46.3286 63.6765C46.2911 63.8751 46.2001 64.0075 46.0824 64.0516C45.9593 64.0902 45.8148 64.0406 45.6649 63.9082C45.3224 63.5937 45.1137 62.9648 45.2047 62.5014C45.2421 62.3028 45.3331 62.1704 45.4509 62.1263C45.4776 62.1152 45.5097 62.1097 45.5365 62.1097Z" fill="#BDCCDA"/>
<path d="M22.6363 63.7574L23.0324 65.1421C23.0324 65.1421 23.2786 65.3959 23.6104 65.3959C23.9422 65.3959 24.1884 65.1421 24.1884 65.1421L24.6219 63.8402L22.631 63.7574H22.6363Z" fill="#BDCCDA"/>
<path d="M23.6104 65.5559C24.0064 65.5559 24.2901 65.269 24.3008 65.258L24.3276 65.2304L24.8413 63.6857L22.4276 63.5864L22.8986 65.2249L22.9253 65.2525C22.9253 65.2525 23.2197 65.5504 23.6157 65.5504L23.6104 65.5559ZM24.0546 65.0539C23.9957 65.109 23.8191 65.2359 23.6104 65.2359C23.4017 65.2359 23.2304 65.109 23.1662 65.0539L22.8451 63.9285L24.4132 63.9891L24.06 65.0539H24.0546Z" fill="#05142C"/>
<path d="M25.2267 62.0804L24.3169 58.4172C24.2634 58.0752 23.9851 57.8159 23.6372 57.8159C23.2893 57.8159 23.0057 58.0807 22.9575 58.4228H22.9468L22.0477 62.0804C22.0156 62.2128 21.9888 62.3507 21.9888 62.4996C21.9888 63.432 22.722 64.1933 23.6319 64.1933C24.5417 64.1933 25.2749 63.4375 25.2749 62.4996C25.2749 62.3562 25.2535 62.2183 25.216 62.0804H25.2267Z" fill="#BDCCDA"/>
<path d="M22.0531 62.0803L22.8344 58.9082C22.9094 58.8806 22.9896 58.8641 23.0699 58.8641C23.4125 58.8641 23.6961 59.1234 23.7496 59.4654L24.6595 63.1285C24.6916 63.2609 24.7183 63.3988 24.7183 63.5478C24.7183 63.6305 24.7076 63.7133 24.6916 63.796C24.4079 64.0388 24.044 64.1932 23.6479 64.1932C22.7435 64.1932 22.0049 63.4374 22.0049 62.4996C22.0049 62.3562 22.0263 62.2182 22.0638 62.0803H22.0531Z" fill="#BDCCDA"/>
<path d="M23.6372 64.3477C24.6273 64.3477 25.4355 63.5147 25.4355 62.4941C25.4355 62.4113 25.4301 62.3231 25.4141 62.2348H25.4248L24.4614 58.3455C24.4561 58.3179 24.4507 58.2903 24.44 58.2627V58.2517C24.3276 57.8986 24.0065 57.6504 23.6372 57.6504C23.268 57.6504 22.9201 57.9207 22.8237 58.3014L22.797 58.3786L21.8497 62.2348H21.8604C21.8443 62.3231 21.839 62.4113 21.839 62.4941C21.839 63.5147 22.6471 64.3477 23.6372 64.3477ZM25.0287 61.9203L25.0716 62.1189C25.109 62.2624 25.1251 62.3782 25.1251 62.4941C25.1251 63.3381 24.4561 64.0277 23.6372 64.0277C22.8184 64.0277 22.1494 63.3381 22.1494 62.4941C22.1494 62.3782 22.1655 62.2569 22.2029 62.1134L22.2511 61.9148L23.1128 58.4393C23.1502 58.169 23.375 57.9704 23.6372 57.9704C23.8995 57.9704 24.1243 58.169 24.1617 58.4393L24.1992 58.5772L25.0287 61.9203Z" fill="#05142C"/>
<path d="M23.5568 64.1875L23.6104 65.3957L23.0056 65.2357L22.754 63.9282L23.5568 64.1875Z" fill="#05142C"/>
<path d="M35.2939 67.818L40.0358 64.9934V59.3442L35.2939 62.1688V67.818Z" fill="#FFC701"/>
<path d="M30.5468 59.3441L35.294 62.1687L40.0358 59.3441L35.294 56.5195L30.5468 59.3441Z" fill="#BDCCDA"/>
<path d="M30.5468 59.9123L34.8123 62.4169L39.5595 59.5923L35.294 57.0877L30.5468 59.9123Z" fill="#FFC701"/>
<path d="M35.294 56.354L40.0358 59.1786L40.175 59.2668V65.076L35.2887 67.9833L30.4023 65.076V59.2613L35.2887 56.354H35.294ZM35.294 56.685L30.8251 59.3441L35.294 62.0031L35.9951 61.5839L39.7629 59.3441L35.2994 56.685H35.294ZM39.902 64.9105V59.5923L35.4332 62.2514V67.5695L39.902 64.9105Z" fill="#05142C"/>
<path d="M36.4393 66.1242L37.1618 65.6938C37.2796 65.6276 37.3706 65.4401 37.3706 65.2801V64.4967C37.3706 64.3367 37.2742 64.265 37.1618 64.3312L36.4393 64.7615C36.3216 64.8277 36.2306 65.0153 36.2306 65.1753V65.9586C36.2306 66.1186 36.3269 66.1904 36.4393 66.1242Z" fill="#05142C"/>
<path d="M8.60181 35.4051C8.42648 35.302 8.27585 35.1722 8.14993 35.0156C8.02561 34.8582 7.92997 34.6838 7.86303 34.4926C7.79608 34.2995 7.76261 34.0989 7.76261 33.8908C7.76261 33.6828 7.79608 33.5225 7.86303 33.41C7.92997 33.2975 8.02561 33.2366 8.14993 33.2272C8.27585 33.2169 8.42648 33.2633 8.60181 33.3664C8.71976 33.4358 8.82575 33.5178 8.91979 33.6125C9.01543 33.7081 9.09751 33.8144 9.16605 33.9316L9.06564 34.1594C8.99072 34.0441 8.9182 33.9508 8.84807 33.8796C8.77953 33.8074 8.70063 33.7451 8.61137 33.6926C8.44082 33.5923 8.31012 33.5764 8.21927 33.6448C8.13001 33.7123 8.08538 33.8576 8.08538 34.0807C8.08538 34.3037 8.13001 34.5025 8.21927 34.6768C8.31012 34.8521 8.44082 34.9899 8.61137 35.0902C8.70063 35.1427 8.77953 35.1741 8.84807 35.1844C8.9182 35.1937 8.99072 35.1839 9.06564 35.1548L9.16605 35.5007C9.09751 35.5354 9.01543 35.5452 8.91979 35.5302C8.82575 35.5162 8.71976 35.4745 8.60181 35.4051Z" fill="#FFC701"/>
<path d="M10.1572 36.3198C9.91655 36.1783 9.73724 36.0025 9.61929 35.7926C9.50293 35.5817 9.44476 35.3375 9.44476 35.06L9.44476 33.8902L9.75318 34.0716L9.75318 35.2386C9.75318 35.4148 9.78506 35.5667 9.84881 35.6941C9.91416 35.8225 10.017 35.928 10.1572 36.0105C10.2911 36.0892 10.3915 36.1033 10.4585 36.0527C10.527 36.003 10.5613 35.89 10.5613 35.7138L10.5613 34.5468L10.8649 34.7254L10.8649 35.8952C10.8649 36.1726 10.8052 36.3475 10.6856 36.4196C10.5677 36.4909 10.3915 36.4576 10.1572 36.3198Z" fill="#FFC701"/>
<path d="M11.8123 37.2931C11.6768 37.2134 11.5517 37.1201 11.4369 37.0133C11.3237 36.9055 11.2265 36.7921 11.1452 36.673L11.2409 36.4453C11.2951 36.5221 11.3516 36.5938 11.4106 36.6604C11.4696 36.7251 11.5325 36.7855 11.5995 36.8418C11.6664 36.8961 11.7374 36.9453 11.8123 36.9894C11.9382 37.0634 12.029 37.0925 12.0848 37.0766C12.1406 37.0606 12.1685 37.0133 12.1685 36.9346C12.1685 36.8652 12.1494 36.8015 12.1111 36.7433C12.0729 36.6834 12.0043 36.6121 11.9055 36.5296L11.6354 36.3061C11.4807 36.1777 11.3652 36.0469 11.2887 35.9138C11.2122 35.7807 11.1739 35.6401 11.1739 35.492C11.1739 35.3683 11.2018 35.2769 11.2576 35.2178C11.3134 35.1588 11.3915 35.1335 11.4919 35.1419C11.5923 35.1503 11.7095 35.1939 11.8434 35.2727C11.9629 35.343 12.0737 35.4287 12.1757 35.53C12.2777 35.6293 12.363 35.7366 12.4315 35.8519L12.3359 36.0656C12.2673 35.9579 12.1924 35.8641 12.1111 35.7844C12.0298 35.7029 11.939 35.6326 11.8386 35.5735C11.7254 35.507 11.6369 35.4812 11.5732 35.4962C11.511 35.5103 11.4799 35.5623 11.4799 35.6523C11.4799 35.7216 11.4991 35.7882 11.5373 35.8519C11.5772 35.9166 11.6441 35.9878 11.7382 36.0656L12.0059 36.285C12.1653 36.4162 12.2833 36.5474 12.3598 36.6787C12.4363 36.808 12.4745 36.9449 12.4745 37.0892C12.4745 37.2073 12.4475 37.2954 12.3933 37.3535C12.3391 37.4098 12.2626 37.4342 12.1637 37.4267C12.0649 37.4173 11.9478 37.3728 11.8123 37.2931Z" fill="#FFC701"/>
<path d="M13.127 38.0381L13.127 36.3537L12.5699 36.0261L12.5699 35.728L13.9925 36.5646L13.9925 36.8627L13.4354 36.5351L13.4354 38.2195L13.127 38.0381Z" fill="#FFC701"/>
<path d="M14.0527 37.5898C14.0527 37.3817 14.0845 37.2205 14.1483 37.1062C14.2136 36.9927 14.3069 36.9304 14.428 36.9192C14.5492 36.906 14.6934 36.9487 14.8608 37.0471C15.0265 37.1446 15.17 37.2711 15.2911 37.4267C15.4123 37.5805 15.5055 37.7525 15.5709 37.9427C15.6378 38.1339 15.6713 38.3327 15.6713 38.5389C15.6713 38.747 15.6378 38.9082 15.5709 39.0225C15.5055 39.136 15.4123 39.1992 15.2911 39.2123C15.17 39.2255 15.0265 39.1833 14.8608 39.0858C14.6934 38.9874 14.5492 38.8604 14.428 38.7048C14.3085 38.5501 14.216 38.3777 14.1507 38.1874C14.0853 37.9952 14.0527 37.796 14.0527 37.5898ZM14.3754 37.7796C14.3754 38.0027 14.4161 38.201 14.4974 38.3744C14.5786 38.5478 14.6998 38.6818 14.8608 38.7765C15.017 38.8683 15.1373 38.8763 15.2218 38.8004C15.3063 38.7245 15.3485 38.575 15.3485 38.3519C15.3485 38.1269 15.3063 37.9277 15.2218 37.7543C15.1389 37.5819 15.0186 37.4492 14.8608 37.3564C14.6998 37.2618 14.5786 37.2524 14.4974 37.3283C14.4161 37.4042 14.3754 37.5547 14.3754 37.7796Z" fill="#FFC701"/>
<path d="M15.9919 39.7229L15.9919 37.7404L16.2621 37.8993L16.8813 39.9028L16.8072 39.8593L17.4264 38.584L17.6942 38.7415L17.6942 40.724L17.4145 40.5594L17.4145 39.0888L17.5005 39.1394L16.9339 40.2768L16.7498 40.1686L16.1832 38.3647L16.2716 38.4167L16.2716 39.8874L15.9919 39.7229Z" fill="#FFC701"/>
<path d="M7.20234 37.1902L7.20234 35.5059L6.64526 35.1783L6.64526 34.8802L8.06783 35.7168L8.06783 36.0148L7.51076 35.6872L7.51076 37.3716L7.20234 37.1902Z" fill="#FFC701"/>
<path d="M8.28574 37.8274L8.28574 35.8449L9.4214 36.5127L9.4214 36.7968L8.5822 36.3033L8.5822 36.8516L9.36641 37.3128L9.36641 37.5996L8.5822 37.1384L8.5822 37.7149L9.4214 38.2084L9.4214 38.4952L8.28574 37.8274Z" fill="#FFC701"/>
<path d="M9.70765 38.6635L9.70765 36.6811L10.444 37.1141C10.6289 37.2229 10.7716 37.3583 10.872 37.5205C10.974 37.6836 11.025 37.857 11.025 38.0407C11.025 38.1625 11.0019 38.253 10.9557 38.312C10.9111 38.372 10.8465 38.4006 10.762 38.3978C10.6775 38.3931 10.5779 38.357 10.4632 38.2895L10.4966 38.2558L10.5779 38.3036C10.6449 38.343 10.7046 38.3987 10.7572 38.4709C10.8098 38.5431 10.8529 38.6312 10.8863 38.7352L11.1326 39.5015L10.7931 39.3019L10.5445 38.5117C10.5221 38.433 10.4879 38.3697 10.4416 38.3219C10.397 38.275 10.3428 38.2328 10.2791 38.1953L10.0161 38.0407L10.0161 38.8449L9.70765 38.6635ZM10.0161 37.7735L10.3938 37.9957C10.5022 38.0594 10.5843 38.0815 10.6401 38.0618C10.6975 38.0412 10.7262 37.9793 10.7262 37.8762C10.7262 37.7731 10.6975 37.6784 10.6401 37.5922C10.5843 37.5069 10.5022 37.4324 10.3938 37.3686L10.0161 37.1465L10.0161 37.7735Z" fill="#FFC701"/>
<path d="M11.3888 39.6522L11.3888 37.6697L11.659 37.8286L12.2782 39.8321L12.2041 39.7886L12.8233 38.5133L13.0911 38.6708L13.0911 40.6532L12.8114 40.4887L12.8114 39.0181L12.8974 39.0687L12.3308 40.2061L12.1467 40.0979L11.5801 38.294L11.6685 38.346L11.6685 39.8167L11.3888 39.6522Z" fill="#FFC701"/>
<path d="M13.4667 40.8741L13.4667 38.8917L13.7752 39.0731L13.7752 41.0555L13.4667 40.8741Z" fill="#FFC701"/>
<path d="M14.1462 41.2737L14.1462 39.2912L14.3781 39.4276L15.3559 41.4902L15.2938 41.4537L15.2938 39.9661L15.5807 40.1348L15.5807 42.1173L15.3488 41.9809L14.3733 39.9197L14.4331 39.9549L14.4331 41.4424L14.1462 41.2737Z" fill="#FFC701"/>
<path d="M15.7645 42.2254L16.5272 40.6915L16.7854 40.8433L17.5577 43.2799L17.2445 43.0957L17.0388 42.418L17.1632 42.5896L16.1518 41.9948L16.2809 41.9723L16.0753 42.4082L15.7645 42.2254ZM16.6539 41.154L16.3168 41.895L16.2546 41.7713L17.058 42.2437L17.0078 42.3013L16.6635 41.1597L16.6539 41.154Z" fill="#FFC701"/>
<path d="M17.7441 43.3896L17.7441 41.4071L18.0526 41.5885L18.0526 43.2644L18.8463 43.7312L18.8463 44.0377L17.7441 43.3896Z" fill="#FFC701"/>
</svg>
