<svg width="72" height="72" viewBox="0 0 72 72" fill="none" xmlns="http://www.w3.org/2000/svg">
<g clip-path="url(#clip0_1464_5011)">
<path d="M32.7272 -4.09069L9.81815 9.00022L32.7272 11.4548L65.4545 46.6366L73.6363 68.7275L75.2727 -6.54523L32.7272 -4.09069Z" fill="white"/>
<path d="M38.1031 53.3754L65.6752 69.2937L65.9267 69.4381L62.5052 39.0078L38.1031 20.3265V53.3754Z" fill="#05142C"/>
<path d="M14.7152 39.863L42.2874 55.7814L38.1031 53.3754L39.3101 21.7815L14.7152 9.01306V6.8142V39.863Z" fill="#05142C"/>
<path d="M135.894 0.206085L114.129 -24.7975C110.452 -29.0192 106.137 -31.508 102.463 -31.5209L80.6786 -31.5945C79.8074 -31.5945 79.0354 -31.3799 78.382 -30.9699L78.3692 -30.9635C78.3627 -30.9603 78.3563 -30.9539 78.3499 -30.9507L3.08294 13.0762C3.6627 12.7848 4.32255 12.631 5.05286 12.6342L26.8373 12.7079C30.5113 12.7207 34.8259 15.2063 38.5031 19.4312L60.2683 44.4348C63.1031 47.6892 64.8936 52.0582 64.8936 55.7098V71.7222L140.519 27.4935V11.4811C140.519 7.82952 138.726 3.46046 135.894 0.206085Z" fill="#BDCCDA"/>
<path d="M138.562 1.23953L116.797 -23.764C113.12 -27.9858 108.805 -30.4746 105.131 -30.4874L83.3465 -30.5611C82.4752 -30.5611 81.7033 -30.3465 81.0498 -29.9365L81.037 -29.9301C81.0306 -29.9269 81.0242 -29.9205 81.0178 -29.9172L5.75081 14.1097C6.33057 13.8182 6.99042 13.6644 7.72073 13.6677L29.5052 13.7413C33.1791 13.7541 37.4938 16.2398 41.1709 20.4647L62.9362 45.4683C65.7709 48.7226 67.5615 53.0917 67.5615 56.7433V69.2322L143.187 25.0035V12.5145C143.187 8.86297 141.393 4.4939 138.562 1.23953Z" fill="#BDCCDA"/>
<path d="M64.7362 72.0002V55.7091C64.7362 52.1248 62.936 47.7398 60.1493 44.5398L38.3841 19.5363C34.7614 15.3722 30.4436 12.8802 26.84 12.8674L5.05561 12.7937C4.37975 12.7905 3.72631 12.9346 3.15615 13.2197L3.0024 12.9378L78.2982 -31.1083C78.9901 -31.5407 79.7909 -31.7682 80.6813 -31.7553L102.466 -31.6817C106.162 -31.6689 110.566 -29.1352 114.25 -24.9039L136.015 0.0997143C138.895 3.40534 140.682 7.76479 140.682 11.4804V27.5857L140.602 27.6306L64.7362 72.0002ZM5.03639 12.4734H5.05561L26.84 12.5471C30.5365 12.5599 34.9407 15.0935 38.6243 19.3249L60.3896 44.3284C63.2692 47.6341 65.0565 51.9935 65.0565 55.7091V71.4429L140.362 27.4031V11.4804C140.362 7.89611 138.562 3.51104 135.775 0.311123L114.01 -24.6925C110.387 -28.8565 106.069 -31.3485 102.466 -31.3614L80.6813 -31.435C79.8645 -31.4414 79.1086 -31.2364 78.4712 -30.836L78.3623 -30.7688L4.35092 12.5214C4.57514 12.4894 4.80256 12.4734 5.03639 12.4734Z" fill="#05142C"/>
<path d="M71.0467 68.0508V52.0768C71.0467 48.4252 69.253 44.0562 66.4214 40.8018L44.6562 15.7982C40.979 11.5765 36.6644 9.08768 32.9904 9.07486L11.206 9.00119C10.3347 9.00119 9.56278 9.2158 8.90934 9.6258L8.89653 9.63221C8.89012 9.63541 8.88371 9.64182 8.87731 9.64502L3.27184 12.9506C3.80356 12.7168 4.39614 12.5887 5.04958 12.5919L26.834 12.6656C30.508 12.6784 34.8226 15.164 38.4998 19.3889L60.265 44.3925C63.0998 47.6469 64.8903 52.0159 64.8903 55.6675V71.6799L71.0499 68.0508H71.0467Z" fill="#BDCCDA"/>
<path d="M64.7237 71.9619V55.6677C64.7237 52.0834 62.9236 47.6983 60.1369 44.4984L38.3717 19.4948C34.7489 15.3307 30.4311 12.8387 26.8276 12.8259L5.04316 12.7522C4.44417 12.7458 3.86121 12.8675 3.32949 13.0981L3.18535 12.8131L8.82284 9.48823C9.51472 9.05581 10.3123 8.84761 11.206 8.8412L32.9904 8.91487C36.6868 8.92768 41.0911 11.4614 44.7747 15.6927L66.5399 40.6963C69.4195 44.0019 71.2069 48.3613 71.2069 52.077V68.1438L64.727 71.9619H64.7237ZM5.02714 12.4351H5.04636L26.8308 12.5088C30.5272 12.5216 34.9315 15.0553 38.6151 19.2866L60.3803 44.2902C63.2599 47.5958 65.0473 51.9552 65.0473 55.6709V71.4046L70.8866 67.9644V52.0802C70.8866 48.4959 69.0864 44.1108 66.2997 40.9109L44.5345 15.9073C40.9117 11.7432 36.5939 9.2512 32.9904 9.23839L11.206 9.16472C10.3796 9.17112 9.63323 9.36331 8.99581 9.7637L8.8869 9.83097L4.39613 12.4767C4.60433 12.4479 4.81574 12.4351 5.03035 12.4351H5.02714Z" fill="#05142C"/>
<path d="M69.7943 62.6436L69.7654 53.3097C69.7654 49.6581 67.9717 45.289 65.1401 42.0347L43.3749 17.0311C39.6977 12.8094 35.3831 10.3206 31.7091 10.3077L9.9247 10.2341C9.05345 10.2341 8.2815 10.4487 7.62806 10.8587L7.61525 10.8651C7.60885 10.8683 7.60244 10.8747 7.59603 10.8779L1.99057 14.1835C2.52228 13.9497 3.11486 13.8216 3.7683 13.8248L25.5527 13.8984C29.2267 13.9113 33.5413 16.3969 37.2185 20.6218L58.9837 45.6254C61.8185 48.8798 63.609 53.2488 63.609 56.9004L63.6379 66.2759L69.7975 62.6468L69.7943 62.6436Z" fill="#BDCCDA"/>
<path d="M102.751 49.5239V33.5499C102.751 29.8983 100.957 25.5293 98.1253 22.2749L76.3601 -2.72868C72.6829 -6.9504 68.3683 -9.43922 64.6943 -9.45204L42.9099 -9.52571C42.0387 -9.52571 41.2667 -9.3111 40.6133 -8.9011L40.6005 -8.89469C40.5941 -8.89149 40.5876 -8.88508 40.5812 -8.88188L34.9758 -5.57626C35.5075 -5.81008 36.1001 -5.93821 36.7535 -5.93501L58.5379 -5.86134C62.2119 -5.84852 66.5265 -3.3629 70.2037 0.862022L91.9689 25.8656C94.8037 29.12 96.5943 33.489 96.5943 37.1406V53.153L102.754 49.5239H102.751Z" fill="#BDCCDA"/>
<path d="M101.96 44.9593V34.5331C101.96 30.8816 100.166 26.5125 97.3343 23.2582L75.5691 -1.74543C71.8919 -5.96714 67.5773 -8.45597 63.9034 -8.46878L42.1189 -8.54246C41.2477 -8.54246 40.4757 -8.32785 39.8223 -7.91785L39.8095 -7.91144C39.8031 -7.90824 39.7966 -7.90183 39.7902 -7.89863L34.1848 -4.593C34.7165 -4.82683 35.3091 -4.95496 35.9625 -4.95175L57.7469 -4.87808C61.4209 -4.86527 65.7355 -2.37964 69.4127 1.84528L91.1779 26.8489C94.0127 30.1032 95.8033 34.4723 95.8033 38.1239V48.5885L101.963 44.9593H101.96Z" fill="#BDCCDA"/>
<path d="M96.4275 53.4319V37.1377C96.4275 33.5534 94.6273 29.1683 91.8406 25.9684L70.0754 0.964787C66.4526 -3.19927 62.1348 -5.6913 58.5313 -5.70411L36.7469 -5.77779C36.1479 -5.78419 35.5649 -5.66248 35.0332 -5.43185L34.8891 -5.71693L40.5266 -9.04177C41.2184 -9.47419 42.016 -9.69201 42.9097 -9.6888L64.6941 -9.61513C68.3905 -9.60232 72.7948 -7.06865 76.4784 -2.83732L98.2436 22.1663C101.123 25.4719 102.911 29.8313 102.911 33.547V49.6138L96.4306 53.4319H96.4275ZM36.7309 -6.0949H36.7469L58.5313 -6.02123C62.2277 -6.00842 66.632 -3.47474 70.3156 0.756584L92.0808 25.7602C94.9604 29.0658 96.7478 33.4252 96.7478 37.1409V52.8746L102.587 49.4344V33.5534C102.587 29.9691 100.787 25.584 98.0002 22.3841L76.235 -2.61951C72.6122 -6.78357 68.2944 -9.2756 64.6909 -9.28841L42.9065 -9.36208C42.0673 -9.36208 41.3337 -9.16349 40.6963 -8.7631L40.5874 -8.69584L36.0966 -6.05005C36.3048 -6.07888 36.5162 -6.09169 36.7309 -6.09169V-6.0949Z" fill="#05142C"/>
<path d="M86.2582 59.1975V43.2235C86.2582 39.5719 84.4644 35.2029 81.6329 31.9485L59.8677 6.94491C56.1905 2.7232 51.8759 0.234371 48.2019 0.22156L26.4174 0.147888C25.5462 0.147888 24.7742 0.362499 24.1208 0.772499L24.108 0.778904C24.1016 0.782104 24.0952 0.788513 24.0888 0.791714L12.9739 7.27163C13.5057 7.0378 14.8828 6.5957 15.5362 6.5989L36.5361 6.98656C40.2101 6.99937 44.5247 9.48499 48.2019 13.7099L69.9671 38.7135C72.8019 41.9679 74.5924 46.3369 74.5924 49.9885V66.0009L86.2614 59.1975H86.2582Z" fill="#BDCCDA"/>
<path d="M84.9544 58.9702L85.0024 44.2583C85.0024 40.6067 83.2087 36.2377 80.3771 32.9833L58.6119 7.97971C54.9347 3.75799 50.6201 1.26916 46.9461 1.25635L25.1617 1.18268C24.2905 1.18268 23.5185 1.39729 22.8651 1.80729L22.8523 1.81369C22.8458 1.81689 22.8394 1.8233 22.833 1.8265L11.7182 8.30643C12.2499 8.0726 12.8425 7.94447 13.4959 7.94767L35.2804 8.02135C38.9543 8.03416 43.269 10.5198 46.9461 14.7447L68.7114 39.7483C71.5461 43.0027 73.3367 47.3717 73.3367 51.0233L73.2886 65.7737L84.9576 58.9702H84.9544Z" fill="#E5E5E5"/>
<path d="M74.4291 66.2829V49.9918C74.4291 46.4075 72.629 42.0224 69.8423 38.8225L48.077 13.8189C44.4543 9.65485 40.1365 7.16282 36.533 7.15001L14.7485 7.07634C14.156 7.06993 13.5666 7.19165 13.0381 7.42228L12.8939 7.1372L24.0408 0.638062C24.7327 0.205641 25.5463 -0.00896645 26.4239 -0.00896645L48.2084 0.0647049C51.9048 0.0775166 56.3091 2.61119 59.9927 6.84251L81.7579 31.8461C84.6375 35.1517 86.4248 39.5112 86.4248 43.2268V59.2937L74.4355 66.2861L74.4291 66.2829ZM14.7325 6.75603H14.7485L36.533 6.8297C40.2294 6.84251 44.6337 9.37618 48.3173 13.6075L70.0825 38.6111C72.9621 41.9167 74.7494 46.2762 74.7494 49.9918V65.7255L86.0981 59.1079V43.2268C86.0981 39.6425 84.298 35.2574 81.5112 32.0575L59.746 7.05392C56.1233 2.88986 51.8055 0.397827 48.202 0.385014L26.4175 0.311344C25.5815 0.304939 24.8448 0.509941 24.2074 0.910328L24.0985 0.977596L14.1175 6.79447C14.3193 6.76884 14.5275 6.75603 14.7357 6.75603H14.7325Z" fill="#05142C"/>
<path d="M128.453 34.5305V18.5565C128.453 14.905 126.659 10.5359 123.827 7.28154L102.062 -17.722C98.3849 -21.9437 94.0703 -24.4326 90.3963 -24.4454L68.6119 -24.5191C67.7407 -24.5191 66.9687 -24.3045 66.3153 -23.8945L66.3024 -23.888C66.296 -23.8848 66.2896 -23.8784 66.2832 -23.8752L55.1684 -17.3953C55.7001 -17.6291 56.2927 -17.7573 56.9461 -17.7541L78.7306 -17.6804C82.4046 -17.6676 86.7192 -15.182 90.3963 -10.957L112.162 14.0465C114.996 17.3009 116.787 21.67 116.787 25.3215V41.3339L128.456 34.5305H128.453Z" fill="#BDCCDA"/>
<path d="M126.797 35.7504V19.7764C126.797 16.1249 125.003 11.7558 122.172 8.50142L100.406 -16.5022C96.7292 -20.7239 92.4146 -23.2127 88.7406 -23.2255L66.9562 -23.2992C66.0849 -23.2992 65.313 -23.0846 64.6596 -22.6746L64.6468 -22.6682C64.6403 -22.665 64.6339 -22.6586 64.6275 -22.6554L53.5127 -16.1754C54.0444 -16.4093 54.637 -16.5374 55.2904 -16.5342L77.0749 -16.4605C80.7488 -16.4477 85.0635 -13.9621 88.7406 -9.73716L110.506 15.2664C113.341 18.5208 115.131 22.8899 115.131 26.5414V42.5538L126.8 35.7504H126.797Z" fill="#BDCCDA"/>
<path d="M116.624 41.6123V25.3212C116.624 21.737 114.823 17.3519 112.037 14.152L90.2715 -10.8516C86.6488 -15.0157 82.331 -17.5077 78.7274 -17.5205L56.943 -17.5942H56.927C56.328 -17.5942 55.7578 -17.4789 55.2325 -17.2483L55.0884 -17.5333L66.2353 -24.0325C66.9271 -24.4649 67.7311 -24.6763 68.6184 -24.6795L90.4028 -24.6058C94.0992 -24.593 98.5035 -22.0593 102.187 -17.828L123.952 7.17556C126.832 10.4812 128.619 14.8406 128.619 18.5563V34.6231L116.63 41.6155L116.624 41.6123ZM56.927 -17.9145H56.9462L78.7307 -17.8408C82.4271 -17.828 86.8313 -15.2943 90.5149 -11.063L112.28 13.9406C115.16 17.2462 116.947 21.6056 116.947 25.3212V41.055L128.296 34.4373V18.5563C128.296 14.972 126.496 10.5869 123.709 7.38696L101.944 -17.6166C98.321 -21.7807 94.0031 -24.2727 90.3996 -24.2855L68.6152 -24.3592C67.7952 -24.3592 67.0424 -24.1606 66.405 -23.7602L66.2961 -23.6929L56.312 -17.8761C56.5138 -17.9017 56.722 -17.9145 56.9302 -17.9145H56.927Z" fill="#05142C"/>
<path d="M26.216 34.0213V34.6277L37.1094 40.9087V40.3226L26.216 34.0213Z" fill="#BDCCDA"/>
<path d="M37.1094 40.3226L26.216 34.0213L27.5185 33.2693L38.4119 39.5681L37.1094 40.3226Z" fill="#BDCCDA"/>
<path d="M37.1094 40.3226L26.4325 34.1488L27.5188 33.5194L38.2239 39.7111L37.1094 40.3226Z" fill="#BDCCDA"/>
<path d="M38.4935 39.6141V39.5224L38.4146 39.4765L27.5595 33.2007L27.5188 33.1778L26.2162 33.932L26.1374 33.9779V34.676L37.0307 40.957L37.1096 41.0028L37.1884 40.957L38.491 40.2053V39.6167L38.4935 39.6141ZM38.2544 39.5683L37.1121 40.2282L26.3791 34.0212L27.5213 33.3612L38.2544 39.5683ZM26.2976 34.5817V34.1613L37.0307 40.3684V40.771L26.2976 34.5817Z" fill="#05142C"/>
<path d="M24.4378 34.9766V35.5831L35.3311 41.864V41.278L24.4378 34.9766Z" fill="#BDCCDA"/>
<path d="M35.3311 41.278L24.4378 34.9766L25.7403 34.2255L36.6336 40.5243L35.3311 41.278Z" fill="#BDCCDA"/>
<path d="M35.3311 41.278L24.6542 35.1041L25.7405 34.4747L36.4456 40.6665L35.3311 41.278Z" fill="#BDCCDA"/>
<path d="M36.7125 40.5696V40.4779L36.6337 40.432L25.7785 34.1562L25.7378 34.1332L24.4353 34.8875L24.3564 34.9333V35.6315L35.2497 41.9124L35.3286 41.9583L35.4075 41.9124L36.71 41.1608V40.5722L36.7125 40.5696ZM36.4734 40.5237L35.3312 41.1837L24.5981 34.9766L25.7403 34.3167L36.4734 40.5237ZM24.5167 35.5372V35.1168L35.2497 41.3238V41.7264L24.5167 35.5372Z" fill="#05142C"/>
<path d="M22.6596 36.0089V36.6128L33.5529 42.8937V42.3077L22.6596 36.0089Z" fill="#BDCCDA"/>
<path d="M33.5529 42.3077L22.6596 36.0089L23.9621 35.2551L34.8555 41.5539L33.5529 42.3077Z" fill="#BDCCDA"/>
<path d="M33.5529 42.3077L22.8758 36.1338L23.9621 35.507L34.6672 41.6962L33.5529 42.3077Z" fill="#BDCCDA"/>
<path d="M34.9343 41.6017V41.51L34.8554 41.4641L24.0002 35.1883L23.9595 35.1653L22.657 35.9196L22.5781 35.9654V36.6636L33.4715 42.9445L33.5503 42.9904L33.6292 42.9445L34.9317 42.1929V41.6043L34.9343 41.6017ZM34.6951 41.5558L33.5529 42.2158L22.8198 36.0088L23.9621 35.3488L34.6951 41.5558ZM22.7384 36.5693V36.1489L33.4715 42.3559V42.7585L22.7384 36.5693Z" fill="#05142C"/>
<path d="M20.8788 37.0408V37.6472L31.7721 43.9281V43.3421L20.8788 37.0408Z" fill="#BDCCDA"/>
<path d="M31.7721 43.3421L20.8788 37.0408L22.1813 36.2888L33.0772 42.5875L31.7721 43.3421Z" fill="#BDCCDA"/>
<path d="M31.7721 43.3421L21.0979 37.1682L22.1817 36.5388L32.8893 42.7306L31.7721 43.3421Z" fill="#BDCCDA"/>
<path d="M33.1562 42.6334V42.5416L33.0773 42.4958L22.2222 36.2199L22.1815 36.197L20.8789 36.9512L20.8001 36.9971V37.6953L31.6934 43.9762L31.7723 44.022L31.8511 43.9762L33.1537 43.2245V42.6359L33.1562 42.6334ZM32.9171 42.5875L31.7748 43.2474L21.0417 37.0404L22.184 36.3805L32.9171 42.5875ZM20.9603 37.601V37.1805L31.6934 43.3876V43.7902L20.9603 37.601Z" fill="#05142C"/>
<path d="M26.216 32.1204V32.7243L37.1093 39.0078V38.4192L26.216 32.1204Z" fill="#BDCCDA"/>
<path d="M37.1093 38.4192L26.216 32.1204L27.5185 31.3684L38.4118 37.6671L37.1093 38.4192Z" fill="#BDCCDA"/>
<path d="M37.1093 38.4192L26.4324 32.2453L27.5187 31.6185L38.2238 37.8102L37.1093 38.4192Z" fill="#BDCCDA"/>
<path d="M38.4935 37.7134V37.6217L38.4146 37.5758L27.5594 31.3L27.5187 31.277L26.2162 32.0313L26.1373 32.0771V32.7753L37.0307 39.0562L37.1095 39.1021L37.1884 39.0562L38.4909 38.3045V37.7159L38.4935 37.7134ZM38.2543 37.6675L37.1121 38.3275L26.379 32.1204L27.5213 31.4605L38.2543 37.6675ZM26.2976 32.681V32.2606L37.0307 38.4676V38.8702L26.2976 32.681Z" fill="#05142C"/>
<path d="M24.4377 33.0761V33.6799L35.3311 39.9634V39.3748L24.4377 33.0761Z" fill="#BDCCDA"/>
<path d="M35.3311 39.3748L24.4377 33.0761L25.7402 32.3241L36.6336 38.6228L35.3311 39.3748Z" fill="#BDCCDA"/>
<path d="M35.3311 39.3748L24.6542 33.2009L25.7405 32.5741L36.4455 38.7659L35.3311 39.3748Z" fill="#BDCCDA"/>
<path d="M36.7125 38.6684V38.5767L36.6336 38.5308L25.7785 32.255L25.7377 32.232L24.4352 32.9863L24.3564 33.0321V33.7303L35.2497 40.0112L35.3286 40.0571L35.4074 40.0112L36.71 39.2596V38.671L36.7125 38.6684ZM36.4734 38.6226L35.3311 39.2825L24.598 33.0755L25.7403 32.4155L36.4734 38.6226ZM24.5166 33.636V33.2156L35.2497 39.4226V39.8252L24.5166 33.636Z" fill="#05142C"/>
<path d="M22.6596 34.1081V34.712L33.5529 40.9929V40.4069L22.6596 34.1081Z" fill="#BDCCDA"/>
<path d="M33.5529 40.4069L22.6596 34.1081L23.9621 33.3534L34.8554 39.6522L33.5529 40.4069Z" fill="#BDCCDA"/>
<path d="M33.5529 40.4069L22.8758 34.2328L23.9621 33.6035L34.6672 39.7952L33.5529 40.4069Z" fill="#BDCCDA"/>
<path d="M34.9342 39.6983V39.6066L34.8554 39.5607L24.0002 33.2848L23.9595 33.2619L22.6569 34.0161L22.5781 34.062V34.7602L33.4714 41.0411L33.5503 41.087L33.6292 41.0411L34.9317 40.2894V39.7008L34.9342 39.6983ZM34.6951 39.6524L33.5528 40.3124L22.8198 34.1053L23.962 33.4454L34.6951 39.6524ZM22.7384 34.6659V34.2455L33.4714 40.4525V40.8551L22.7384 34.6659Z" fill="#05142C"/>
<path d="M20.8787 35.1394V35.7433L31.7721 42.0268V41.4382L20.8787 35.1394Z" fill="#BDCCDA"/>
<path d="M31.7721 41.4382L20.8787 35.1394L22.1812 34.3856L33.0771 40.6869L31.7721 41.4382Z" fill="#BDCCDA"/>
<path d="M31.7721 41.4382L21.0979 35.2647L22.1816 34.6379L32.8892 40.8271L31.7721 41.4382Z" fill="#BDCCDA"/>
<path d="M33.1562 40.7331V40.6413L33.0773 40.5955L22.2221 34.3196L22.1814 34.2967L20.8789 35.0509L20.8 35.0968V35.795L31.6934 42.0759L31.7722 42.1217L31.8511 42.0759L33.1536 41.3242V40.7356L33.1562 40.7331ZM32.917 40.6872L31.7748 41.3471L21.0417 35.1401L22.184 34.4802L32.917 40.6872ZM20.9603 35.7007V35.2803L31.6934 41.4873V41.8899L20.9603 35.7007Z" fill="#05142C"/>
<path d="M28.8261 41.6451V40.3226L30.4746 41.2782V42.5904L28.8261 41.6451Z" fill="#BDCCDA"/>
<path d="M31.6118 41.9329L30.5535 41.3214V41.2296L28.7448 40.1824V41.6908L30.5535 42.7253V42.5419L31.6118 41.9303V41.9329ZM30.3933 42.4527L28.9025 41.5991V40.4601L30.3933 41.3239V42.4527Z" fill="#05142C"/>
<path d="M22.0363 37.7009V36.4116L23.6848 37.3773V38.6641L22.0363 37.7009Z" fill="#BDCCDA"/>
<path d="M24.8247 38.0059L23.7664 37.3944V37.3281L21.9576 36.2681V37.7435L23.7664 38.7984V38.6123L24.8247 38.0008V38.0059ZM23.6061 38.5232L22.1153 37.6543V36.551L23.6061 37.4224V38.5232Z" fill="#05142C"/>
<path d="M25.3513 39.6136V38.3243L26.9998 39.29V40.5768L25.3513 39.6136Z" fill="#BDCCDA"/>
<path d="M28.1393 39.9202L27.081 39.3086V39.2424L25.2722 38.1849V39.6603L27.081 40.7151V40.5317L28.1393 39.9202ZM26.9207 40.4374L25.43 39.5685V38.4652L26.9207 39.3367V40.4374Z" fill="#05142C"/>
<path d="M33.6574 30.3137L28.7449 27.4752L23.8351 30.3137V35.9959L28.7449 38.837V33.1701L33.6574 30.3137Z" fill="#BDCCDA"/>
<path d="M23.8351 35.9781L28.7449 38.8166V33.1523L23.8351 30.2959V35.9781Z" fill="#FFBE2E"/>
<path d="M33.7564 30.2578L28.7473 27.3607L23.7509 30.2502L23.7356 30.2578V36.0495L28.6481 38.8906L28.7473 38.9466L28.8465 38.8906L33.708 36.0801L33.7564 36.0521V30.2578ZM28.7473 27.5875L31.0547 28.9226L26.3407 31.649L24.0333 30.3139L28.7473 27.5875ZM28.6481 38.6638L23.9341 35.9374V30.4846L28.6481 33.211V38.6638ZM30.7468 31.8835L28.7473 33.0403L26.4399 31.7051L31.1539 28.9787L33.4613 30.3139L30.7443 31.8835H30.7468Z" fill="#05142C"/>
<path d="M26.7961 33.162L25.8853 32.6346C25.7836 32.576 25.6818 32.5709 25.5978 32.6193C25.5037 32.6753 25.4477 32.79 25.4477 32.9378C25.4477 33.185 25.5953 33.4652 25.7861 33.5748L26.6968 34.1022C26.7528 34.1354 26.8088 34.1507 26.8597 34.1507C26.9029 34.1507 26.9462 34.1405 26.9843 34.1175C27.0784 34.0615 27.1344 33.9468 27.1344 33.799C27.1344 33.5519 26.9869 33.2716 26.7961 33.162ZM26.8876 33.9494C26.8597 33.9647 26.819 33.9468 26.7961 33.9341L25.8853 33.4066C25.7556 33.3327 25.6462 33.1187 25.6462 32.9403C25.6462 32.8512 25.6742 32.8053 25.6971 32.7925C25.725 32.7747 25.7657 32.7951 25.7886 32.8078L25.8522 32.8435C25.8751 33.0575 26.0023 33.2818 26.1601 33.3735L26.9385 33.822C26.9334 33.8959 26.9131 33.9366 26.8902 33.9494H26.8876Z" fill="#05142C"/>
<path d="M60.2684 44.3795L38.5032 19.3759C34.826 15.1542 30.5114 12.6654 26.8374 12.6526L5.053 12.5789C4.7487 12.5789 4.46042 12.6109 4.18175 12.6622C3.47706 13.6808 3.07987 15.0837 3.07987 16.7878V32.7297L15.0403 39.6357V20.3881C15.0403 19.7603 15.7226 19.3663 16.2671 19.6802L29.8356 27.5151C30.5915 27.9507 31.056 28.7579 31.056 29.6291V48.8831L38.516 53.1913V33.9597C38.516 33.3319 39.1983 32.9379 39.7428 33.2518L53.3112 41.0867C54.0672 41.5223 54.5316 42.3295 54.5316 43.2007V62.4387L64.8905 68.4189V55.6545C64.8905 52.0029 63.0968 47.6339 60.2652 44.3795H60.2684Z" fill="#FFBE2E"/>
<path d="M65.0565 68.6977L54.3773 62.5317V43.204C54.3773 42.3905 53.9417 41.6345 53.237 41.2277L39.6686 33.3929C39.4636 33.2744 39.2169 33.2744 39.0119 33.3929C38.8069 33.5114 38.682 33.7228 38.682 33.963V53.4701L30.9016 48.9793V29.6324C30.9016 28.8188 30.466 28.0629 29.7613 27.6561L16.1929 19.8213C15.9879 19.7027 15.7412 19.7027 15.5362 19.8213C15.3312 19.9398 15.2063 20.1512 15.2063 20.3914V39.9176L2.92554 32.8259V16.7911C2.92554 15.0966 3.31633 13.6392 4.05625 12.5726L4.09468 12.5181L4.15874 12.5053C4.47585 12.4477 4.76413 12.4252 5.05882 12.4188L26.8433 12.4925C30.5397 12.5053 34.944 15.039 38.6275 19.2703L60.3928 44.2739C63.2724 47.5795 65.0597 51.939 65.0597 55.6546V68.6977H65.0565ZM54.6976 62.3459L64.7362 68.1436V55.6578C64.7362 52.0735 62.9361 47.6884 60.1493 44.4885L38.3841 19.4849C34.7614 15.3209 30.4436 12.8288 26.8401 12.816L5.05562 12.7423C4.80898 12.7423 4.55273 12.7648 4.28046 12.8096C3.6046 13.8154 3.24586 15.1895 3.24586 16.7911V32.6401L14.886 39.3603V20.3882C14.886 20.0359 15.0686 19.7188 15.3761 19.5426C15.6836 19.3664 16.0487 19.3664 16.353 19.5426L29.9215 27.3774C30.7222 27.8419 31.2219 28.7035 31.2219 29.6292V48.7903L38.3617 52.9127V33.9598C38.3617 33.6075 38.5443 33.2904 38.8518 33.1142C39.1561 32.938 39.5212 32.938 39.8287 33.1142L53.3972 40.9491C54.1979 41.4135 54.6976 42.2751 54.6976 43.2009V62.3459Z" fill="#05142C"/>
<path d="M16.2702 19.6839C15.7257 19.37 15.0434 19.764 15.0434 20.3918V39.6393L16.7507 38.6207V19.9657L16.267 19.6871L16.2702 19.6839Z" fill="#05142C"/>
<path d="M14.8859 39.9208V20.3914C14.8859 20.0391 15.0685 19.7219 15.376 19.5458C15.6835 19.3696 16.0487 19.3696 16.353 19.5458L16.9167 19.8725V38.7133L14.8891 39.924L14.8859 39.9208ZM15.8629 19.7316C15.7508 19.7316 15.6387 19.7604 15.5362 19.8213C15.3312 19.9398 15.2063 20.1512 15.2063 20.3914L15.2062 39.3571L16.5932 38.5275V20.0551L16.1896 19.8212C16.0871 19.7604 15.975 19.7316 15.8597 19.7316H15.8629Z" fill="#05142C"/>
<path d="M39.72 33.272C39.1754 32.9581 38.4932 33.3521 38.4932 33.9799V53.2275L40.2004 52.2089V33.5539L39.7168 33.2752L39.72 33.272Z" fill="#05142C"/>
<path d="M38.3363 53.508V33.9786C38.3363 33.6262 38.5189 33.3091 38.8232 33.133C39.1307 32.9568 39.4959 32.9568 39.8002 33.133L40.3639 33.4565V52.2972L38.3363 53.508ZM39.3133 33.3187C39.2012 33.3187 39.0891 33.3476 38.9834 33.4084C38.7784 33.5269 38.6566 33.7383 38.6566 33.9786V52.9443L40.0436 52.1147V33.6423L39.64 33.4084C39.5375 33.3508 39.4254 33.3187 39.3101 33.3187H39.3133Z" fill="#05142C"/>
<path d="M3.08308 16.8167C3.08308 15.1094 3.48027 13.7033 4.18496 12.6879C1.8691 13.1107 0.440508 15.2856 0.440508 18.54L0.379648 34.1168C0.379648 34.1904 0.459727 34.2353 0.520586 34.2001L3.08308 32.7458V16.8167Z" fill="#05142C"/>
<path d="M0.475233 34.3726C0.430389 34.3726 0.385547 34.3598 0.34711 34.3374C0.270235 34.2926 0.218985 34.2061 0.222188 34.1164L0.283048 18.5396C0.283048 15.2212 1.73086 12.9726 4.15882 12.5305L4.54 12.4601L4.31898 12.7772C3.6175 13.7894 3.24594 15.1859 3.24594 16.8163V32.8383L0.60336 34.3374C0.564923 34.3598 0.520074 34.3694 0.478434 34.3694L0.475233 34.3726ZM3.84171 12.9309C1.80453 13.5011 0.60336 15.5639 0.60336 18.5396L0.5425 34.0043L2.92562 32.6526V16.8163C2.92562 15.2916 3.24273 13.9591 3.84171 12.9309Z" fill="#05142C"/>
<path d="M16.7536 19.9746V25.1348L21.2764 22.5852L16.7536 19.9746Z" fill="#05142C"/>
<path d="M16.5934 25.4072V19.696L21.5999 22.5852L16.5934 25.4072ZM16.9137 20.2501V24.8594L20.9528 22.5852L16.9137 20.2533V20.2501Z" fill="#05142C"/>
<path d="M11.7533 27.3203L8.87373 25.6578C8.61428 25.5073 8.40287 25.1037 8.40287 24.7578V18.9409C8.40287 18.595 8.61428 18.4348 8.87373 18.5853L11.7533 20.2478C12.0128 20.3983 12.2242 20.8019 12.2242 21.1478V26.9647C12.2242 27.3107 12.0128 27.4708 11.7533 27.3203Z" fill="#BDCCDA"/>
<path d="M10.3569 28.5852C10.2704 28.5852 10.1807 28.5596 10.0879 28.5052L7.20825 26.8427C6.89754 26.6634 6.65731 26.2085 6.65731 25.8017V19.9848C6.65731 19.7446 6.74699 19.5524 6.90074 19.4659C7.03848 19.3859 7.20504 19.3955 7.3684 19.4916L10.248 21.154C10.5587 21.3334 10.7989 21.7882 10.7989 22.195V28.0119C10.7989 28.2521 10.7093 28.4443 10.5555 28.5308C10.4947 28.566 10.4242 28.5852 10.3537 28.5852H10.3569ZM7.10254 19.7318C7.10254 19.7318 7.07371 19.7318 7.0609 19.7414C7.01926 19.7638 6.97762 19.8407 6.97762 19.9848V25.8017C6.97762 26.0932 7.157 26.4423 7.3684 26.5641L10.248 28.2265C10.2832 28.2457 10.3537 28.2777 10.3954 28.2521C10.437 28.2297 10.4786 28.1528 10.4786 28.0087V22.1918C10.4786 21.9003 10.2993 21.5512 10.0879 21.4295L7.20825 19.767C7.18262 19.751 7.14098 19.7318 7.10254 19.7318Z" fill="#05142C"/>
<path d="M8.02866 26.3375C7.76921 26.187 7.5578 25.7834 7.5578 25.4374V19.7839L7.29194 19.6302C7.03249 19.4796 6.82108 19.6398 6.82108 19.9857V25.8026C6.82108 26.1485 7.03249 26.5553 7.29194 26.7027L10.1716 28.3651C10.431 28.5157 10.6424 28.3555 10.6424 28.0096V27.8462L8.02866 26.3375Z" fill="#05142C"/>
<path d="M10.3569 28.5852C10.2704 28.5852 10.1807 28.5596 10.0879 28.5052L7.20825 26.8427C6.89754 26.6634 6.65731 26.2085 6.65731 25.8017V19.9848C6.65731 19.7446 6.74699 19.5524 6.90074 19.4659C7.03848 19.3859 7.20504 19.3955 7.3684 19.4916L7.71434 19.6902V25.4366C7.71434 25.728 7.89372 26.0772 8.10512 26.1989L10.7989 27.7556V28.0119C10.7989 28.2521 10.7093 28.4443 10.5555 28.5308C10.4947 28.566 10.4242 28.5852 10.3537 28.5852H10.3569ZM7.10254 19.7318C7.10254 19.7318 7.07371 19.7318 7.0609 19.7414C7.01926 19.7638 6.97762 19.8407 6.97762 19.9848V25.8017C6.97762 26.0932 7.157 26.4423 7.3684 26.5641L10.248 28.2265C10.2832 28.2457 10.3537 28.2777 10.3954 28.2521C10.437 28.2297 10.4786 28.1528 10.4786 28.0087V27.9382L7.94497 26.4744C7.63426 26.295 7.39403 25.8402 7.39403 25.4334V19.8727L7.20825 19.767C7.18262 19.751 7.14098 19.7318 7.10254 19.7318Z" fill="#05142C"/>
<path d="M63.5031 57.6756L60.6235 56.0132C60.364 55.8626 60.1526 55.459 60.1526 55.1131V49.2962C60.1526 48.9503 60.364 48.7901 60.6235 48.9407L63.5031 50.6031C63.7625 50.7536 63.9739 51.1572 63.9739 51.5032V57.32C63.9739 57.666 63.7625 57.8261 63.5031 57.6756Z" fill="#FFBE2E"/>
<path d="M62.302 58.7102C62.2155 58.7102 62.1259 58.6846 62.033 58.6301L59.1534 56.9677C58.8427 56.7883 58.6024 56.3335 58.6024 55.9267V50.1098C58.6024 49.8696 58.6921 49.6774 58.8459 49.5909C58.9836 49.5108 59.1502 49.5204 59.3135 49.6165L62.1931 51.279C62.5038 51.4583 62.7441 51.9132 62.7441 52.32V58.1368C62.7441 58.3771 62.6544 58.5693 62.5006 58.6557C62.4398 58.691 62.3693 58.7102 62.2988 58.7102H62.302ZM59.0477 49.8568C59.0477 49.8568 59.0188 49.8568 59.006 49.8664C58.9644 49.8888 58.9227 49.9657 58.9227 50.1098V55.9267C58.9227 56.2182 59.1021 56.5673 59.3135 56.689L62.1931 58.3514C62.2284 58.3707 62.2956 58.4027 62.3405 58.3771C62.3821 58.3547 62.4238 58.2778 62.4238 58.1336V52.3168C62.4238 52.0253 62.2444 51.6761 62.033 51.5544L59.1534 49.892C59.1277 49.876 59.0861 49.8568 59.0477 49.8568Z" fill="#05142C"/>
<path d="M59.9739 56.4617C59.7144 56.3112 59.503 55.9076 59.503 55.5617V49.9081L59.2371 49.7544C58.9777 49.6039 58.7663 49.764 58.7663 50.1099V55.9268C58.7663 56.2728 58.9777 56.6763 59.2371 56.8269L62.1167 58.4893C62.3762 58.6399 62.5876 58.4797 62.5876 58.1338V57.9704L59.9739 56.4617Z" fill="#05142C"/>
<path d="M62.302 58.7102C62.2155 58.7102 62.1259 58.6846 62.033 58.6301L59.1534 56.9677C58.8427 56.7883 58.6024 56.3335 58.6024 55.9267V50.1098C58.6024 49.8696 58.6921 49.6774 58.8459 49.5909C58.9836 49.5108 59.1502 49.5204 59.3135 49.6165L59.6595 49.8151V55.5615C59.6595 55.853 59.8388 56.2022 60.0502 56.3239L62.7441 57.8806V58.1368C62.7441 58.3771 62.6544 58.5693 62.5006 58.6557C62.4398 58.691 62.3693 58.7102 62.2988 58.7102H62.302ZM59.0477 49.8568C59.0477 49.8568 59.0188 49.8568 59.006 49.8664C58.9644 49.8888 58.9227 49.9657 58.9227 50.1098V55.9267C58.9227 56.2182 59.1021 56.5673 59.3135 56.689L62.1931 58.3514C62.2284 58.3707 62.2956 58.4027 62.3405 58.3771C62.3789 58.3547 62.4238 58.2778 62.4238 58.1336V58.0632L59.8901 56.5993C59.5794 56.42 59.3391 55.9651 59.3391 55.5583V49.9977L59.1534 49.8888C59.1277 49.8728 59.0861 49.8536 59.0477 49.8536V49.8568Z" fill="#05142C"/>
<path d="M64.9285 55.6639V71.5097C64.9285 71.5834 65.0086 71.6282 65.0727 71.593L140.554 27.4476V11.4351C140.538 11.4255 140.532 11.4223 140.516 11.4127L64.8965 54.8311C64.9157 55.1129 64.9285 55.3884 64.9285 55.6639Z" fill="#05142C"/>
<path d="M71.1971 67.8295H70.8768V52.1374C70.8768 52.0189 70.8768 51.9036 70.8704 51.7851L71.1907 51.7723C71.1939 51.894 71.1971 52.0157 71.1971 52.1374V67.8295Z" fill="#BDCCDA"/>
<path d="M86.4214 58.8964H86.1011V43.2043C86.1011 43.0858 86.1011 42.9705 86.0947 42.852L86.415 42.8392C86.4182 42.9609 86.4214 43.0826 86.4214 43.2043V58.8964Z" fill="#BDCCDA"/>
<path d="M96.7256 52.8813H96.4053V37.1892C96.4053 37.0739 96.4053 36.9554 96.3989 36.8368L96.7192 36.824C96.7224 36.9458 96.7256 37.0675 96.7256 37.1892V52.8813Z" fill="#BDCCDA"/>
<path d="M74.7331 65.725H74.4128V50.0329C74.4128 49.9144 74.4128 49.7991 74.4063 49.6805L74.7267 49.6677C74.7299 49.7895 74.7331 49.9112 74.7331 50.0329V65.725Z" fill="#BDCCDA"/>
<path d="M102.914 49.2329H102.594V33.5408C102.594 33.4222 102.594 33.3069 102.588 33.1884L102.908 33.1756C102.911 33.2973 102.914 33.419 102.914 33.5408V49.2329Z" fill="#BDCCDA"/>
<path d="M116.935 41.0262H116.614V25.3341C116.614 25.2188 116.614 25.1003 116.608 24.9818L116.928 24.969C116.931 25.0907 116.935 25.2124 116.935 25.3341V41.0262Z" fill="#BDCCDA"/>
<path d="M128.616 34.2864H128.296V18.5943C128.296 18.479 128.296 18.3605 128.29 18.242L128.61 18.2292C128.613 18.3509 128.616 18.4726 128.616 18.5943V34.2864Z" fill="#BDCCDA"/>
<path d="M16.9056 20.2598L16.5853 20.2607L16.5932 38.5275L16.9167 38.7133L16.9056 20.2598Z" fill="#BDCCDA"/>
<path d="M2.80465 17.151L0.460913 18.4528L0.616448 18.7328L2.96018 17.431L2.80465 17.151Z" fill="#BDCCDA"/>
<path d="M2.80443 31.3699L0.460016 32.6705L0.615405 32.9506L2.95982 31.65L2.80443 31.3699Z" fill="#BDCCDA"/>
<path d="M2.83166 15.9481L0.546735 17.2172L0.702269 17.4973L2.9872 16.2281L2.83166 15.9481Z" fill="#BDCCDA"/>
<path d="M108.699 -29.6699L32.4854 14.2079L32.8051 14.7631L109.019 -29.1147L108.699 -29.6699Z" fill="#05142C"/>
<path d="M114.875 -24.433L38.6357 19.4065L38.7954 19.6842L115.035 -24.1553L114.875 -24.433Z" fill="#05142C"/>
<path d="M100.989 -31.4123L24.7525 12.4256L24.9122 12.7032L101.149 -31.1346L100.989 -31.4123Z" fill="#05142C"/>
<path d="M85.976 -31.4542L9.77784 12.4502L9.93776 12.7277L86.1359 -31.1766L85.976 -31.4542Z" fill="#05142C"/>
<path d="M115.708 -23.3922L39.4941 20.4856L39.8138 21.0408L116.027 -22.837L115.708 -23.3922Z" fill="#05142C"/>
<path d="M124.52 -13.2611L48.2603 30.5369L48.4198 30.8146L124.679 -12.9833L124.52 -13.2611Z" fill="#05142C"/>
<path d="M140.232 7.03296L64.0342 50.9374L64.3541 51.4924L140.552 7.58804L140.232 7.03296Z" fill="#05142C"/>
<path d="M139.575 5.26227L63.3127 49.0618L63.4722 49.3396L139.734 5.54004L139.575 5.26227Z" fill="#05142C"/>
<path d="M141.577 24.189L65.3173 67.987L65.4768 68.2647L141.736 24.4668L141.577 24.189Z" fill="#BDCCDA"/>
<path d="M88.4233 53.2426V51.388L88.5034 51.3431L104.199 42.2911V44.1457L104.119 44.1905L88.4233 53.2426ZM88.7436 51.5737V52.6884L103.878 43.9599V42.8452L88.7436 51.5737Z" fill="#BDCCDA"/>
<path d="M79.394 56.4366L76.6041 50.5493C76.5625 50.4596 76.5945 50.3475 76.6842 50.2995L80.6465 48.0124L83.5037 54.0183L79.3972 56.4398L79.394 56.4366ZM76.9436 50.5173L79.535 55.9818L83.0872 53.8869L80.5055 48.4609L76.9436 50.5173Z" fill="#BDCCDA"/>
<path d="M76.5752 56.9907V50.3859L76.8314 50.3186L76.8987 50.4403L79.2658 55.4372L76.572 56.9939L76.5752 56.9907ZM76.8955 56.4334L78.8526 55.3027L76.8955 51.1707V56.4334Z" fill="#BDCCDA"/>
<path d="M80.8315 48.8487L77.0015 51.1065L77.1642 51.3824L80.9942 49.1246L80.8315 48.8487Z" fill="#BDCCDA"/>
<path d="M82.7492 52.9367L78.9192 55.1946L79.0819 55.4705L82.9118 53.2127L82.7492 52.9367Z" fill="#BDCCDA"/>
<path d="M82.4265 52.2148L78.5965 54.4726L78.7592 54.7485L82.5891 52.4907L82.4265 52.2148Z" fill="#BDCCDA"/>
<path d="M26.3922 24.4314L20.6522 21.1226C20.3928 20.972 20.1814 20.5684 20.1814 20.2225V18.8324C20.1814 18.4864 20.3928 18.3263 20.6522 18.4768L26.3922 21.7856C26.6517 21.9362 26.8631 22.3398 26.8631 22.6857V24.0759C26.8631 24.4218 26.6517 24.582 26.3922 24.4314Z" fill="#BDCCDA"/>
<path d="M21.1676 19.5147C20.9081 19.3642 20.6967 19.5243 20.6967 19.8703V21.2476L26.4303 24.5532C26.6898 24.7038 26.9012 24.5436 26.9012 24.1977V22.8204L21.1676 19.5147Z" fill="#BDCCDA"/>
<path d="M26.5778 24.6453C26.4913 24.6453 26.4016 24.6197 26.3087 24.5652L20.5687 21.2564C20.258 21.077 20.0178 20.6222 20.0178 20.2154V18.8252C20.0178 18.585 20.1075 18.3928 20.2612 18.3063C20.3989 18.2262 20.5655 18.2358 20.7289 18.3319L26.4689 21.6408C26.7796 21.8201 27.0198 22.275 27.0198 22.6818V24.0751C27.0198 24.3154 26.9301 24.5076 26.7764 24.594C26.7155 24.6293 26.645 24.6485 26.5746 24.6485L26.5778 24.6453ZM20.4662 18.5722C20.4662 18.5722 20.4374 18.5722 20.4246 18.5818C20.3861 18.6042 20.3413 18.6811 20.3413 18.8252V20.2154C20.3413 20.5069 20.5207 20.856 20.7321 20.9777L26.4721 24.2865C26.5073 24.3058 26.5746 24.3378 26.6194 24.3122C26.661 24.2897 26.7027 24.2129 26.7027 24.0687V22.6754C26.7027 22.3839 26.5233 22.0348 26.3119 21.913L20.5719 18.6042C20.5463 18.5882 20.5046 18.569 20.4662 18.569V18.5722Z" fill="#05142C"/>
<path d="M27.1449 21.3266L21.4049 18.0178C21.2864 17.9505 21.1807 17.9473 21.0974 17.9954C21.0974 17.9954 21.075 18.005 21.0654 18.0146L20.4312 18.3926L20.3831 18.4278C20.396 18.4214 20.5465 18.4182 20.6458 18.4726L26.3858 21.7815C26.6452 21.932 26.8567 22.3356 26.8567 22.6816V24.0717C26.8567 24.2415 26.8054 24.3632 26.7253 24.4305L27.4717 23.9884C27.5613 23.9244 27.6158 23.7962 27.6158 23.6201V22.2299C27.6158 21.884 27.4044 21.4804 27.1449 21.3298V21.3266Z" fill="#BDCCDA"/>
<path d="M26.8051 24.5682L26.6225 24.3055C26.6674 24.2671 26.6962 24.1806 26.6962 24.0717V22.6783C26.6962 22.3868 26.5168 22.0377 26.3054 21.916L20.5654 18.6072C20.5334 18.5879 20.4725 18.5815 20.4341 18.5783L20.2707 18.3093C20.29 18.29 20.3508 18.2516 20.3508 18.2516L21.0171 17.8544C21.1612 17.7711 21.3246 17.7807 21.4879 17.8736L27.2279 21.1825C27.5386 21.3618 27.7789 21.8167 27.7789 22.2235V23.6136C27.7789 23.8379 27.702 24.0172 27.5675 24.1133L26.8083 24.5618L26.8051 24.5682ZM20.7864 18.3669L26.4656 21.6405C26.7763 21.8199 27.0165 22.2747 27.0165 22.6815V24.0717L27.3913 23.8507C27.4169 23.8314 27.4586 23.7546 27.4586 23.62V22.2299C27.4586 21.9384 27.2792 21.5893 27.0678 21.4675L21.3278 18.1587C21.2861 18.1331 21.2253 18.1107 21.1804 18.1363L21.1516 18.1523L20.7864 18.3701V18.3669Z" fill="#05142C"/>
<path d="M26.7539 22.2362L27.5227 21.7942L27.6156 22.5533L27.5899 23.7993L27.1863 24.2125L26.7253 24.4305L26.85 22.5789L26.7539 22.2362Z" fill="#05142C"/>
<path d="M50.0728 38.0725L44.3328 34.7637C44.0734 34.6132 43.862 34.2096 43.862 33.8636V32.4735C43.862 32.1275 44.0734 31.9674 44.3328 32.1179L50.0728 35.4268C50.3323 35.5773 50.5437 35.9809 50.5437 36.3268V37.717C50.5437 38.0629 50.3323 38.2231 50.0728 38.0725Z" fill="#BDCCDA"/>
<path d="M44.8484 33.172C44.589 33.0214 44.3776 33.1816 44.3776 33.5275V34.9049L50.1111 38.2105C50.3706 38.361 50.582 38.2009 50.582 37.855V36.4776L44.8484 33.172Z" fill="#BDCCDA"/>
<path d="M50.2586 38.2872C50.1721 38.2872 50.0824 38.2616 49.9895 38.2072L44.2495 34.8983C43.9388 34.7189 43.6986 34.2641 43.6986 33.8573V32.4672C43.6986 32.2269 43.7882 32.0347 43.942 31.9482C44.0797 31.8682 44.2463 31.8778 44.4096 31.9739L50.1497 35.2827C50.4604 35.4621 50.7006 35.9169 50.7006 36.3237V37.7171C50.7006 37.9573 50.6109 38.1495 50.4571 38.236C50.3963 38.2712 50.3258 38.2904 50.2554 38.2904L50.2586 38.2872ZM44.147 32.2141C44.147 32.2141 44.1182 32.2141 44.1054 32.2237C44.0669 32.2461 44.0221 32.323 44.0221 32.4672V33.8573C44.0221 34.1488 44.2015 34.4979 44.4129 34.6197L50.1529 37.9285C50.1881 37.9477 50.2554 37.9797 50.3002 37.9541C50.3418 37.9317 50.3835 37.8548 50.3835 37.7107V36.3173C50.3835 36.0258 50.2041 35.6767 49.9927 35.555L44.2527 32.2461C44.2271 32.2301 44.1854 32.2109 44.147 32.2109V32.2141Z" fill="#05142C"/>
<path d="M50.8254 34.9687L45.0854 31.6598C44.9669 31.5926 44.8612 31.5894 44.7779 31.6374C44.7779 31.6374 44.7555 31.647 44.7458 31.6566L44.1116 32.0346L44.0636 32.0698C44.0764 32.0634 44.2269 32.0602 44.3262 32.1147L50.0662 35.4235C50.3257 35.574 50.5371 35.9776 50.5371 36.3236V37.7137C50.5371 37.8835 50.4858 38.0052 50.4058 38.0725L51.1521 37.6304C51.2418 37.5664 51.2962 37.4383 51.2962 37.2621V35.8719C51.2962 35.526 51.0848 35.1224 50.8254 34.9719V34.9687Z" fill="#BDCCDA"/>
<path d="M50.4864 38.2105L50.3038 37.9479C50.3486 37.9095 50.3775 37.823 50.3775 37.7141V36.3207C50.3775 36.0292 50.1981 35.6801 49.9867 35.5584L44.2467 32.2495C44.2146 32.2303 44.1538 32.2239 44.1154 32.2207L43.952 31.9516C43.9712 31.9324 44.0321 31.894 44.0321 31.894L44.6983 31.4968C44.8425 31.4135 45.0058 31.4231 45.1692 31.516L50.9092 34.8248C51.2199 35.0042 51.4601 35.4591 51.4601 35.8659V37.256C51.4601 37.4802 51.3832 37.6596 51.2487 37.7557L50.4896 38.2041L50.4864 38.2105ZM44.4677 32.0093L50.1468 35.2829C50.4575 35.4623 50.6978 35.9171 50.6978 36.3239V37.7141L51.0725 37.493C51.0982 37.4738 51.1398 37.397 51.1398 37.2624V35.8723C51.1398 35.5808 50.9604 35.2317 50.749 35.1099L45.009 31.8011C44.9674 31.7755 44.9065 31.7531 44.8617 31.7787L44.8328 31.7947L44.4677 32.0125V32.0093Z" fill="#05142C"/>
<path d="M50.4345 35.8786L51.2 35.4366L51.2961 36.1957L51.2705 37.4417L50.8669 37.8549L50.4058 38.0725L50.5306 36.2213L50.4345 35.8786Z" fill="#05142C"/>
<path d="M3.90275 12.579C3.954 12.5469 5.83744 12.579 5.83744 12.579L81.1749 -31.4704L79.0192 -31.291L3.90275 12.579Z" fill="#05142C"/>
<path d="M79.756 0.295467L84.8233 6.11555L88.8817 3.64914L83.8624 -2.11649L79.756 0.295467Z" fill="#BDCCDA"/>
<path d="M85.0379 5.23745L79.756 -0.829262L84.1411 -3.40778L89.375 2.60448L85.0379 5.23745ZM80.2525 -0.749184L85.1052 4.82425L88.8849 2.52761L84.077 -2.99457L80.2525 -0.745983V-0.749184Z" fill="#05142C"/>
<path d="M87.1945 1.99426L85.0323 3.30889L85.1987 3.58258L87.3609 2.26796L87.1945 1.99426Z" fill="#05142C"/>
<path d="M53.266 18.0723L58.3333 23.8924L62.3917 21.426L57.3724 15.6604L53.266 18.0723Z" fill="#BDCCDA"/>
<path d="M58.5479 23.246L53.266 17.1793L57.3467 14.7802C57.5229 14.6777 57.7503 14.7129 57.8849 14.8667L62.8849 20.6099L58.5479 23.2428V23.246ZM53.7624 17.2594L58.6152 22.8328L62.3949 20.5362L57.587 15.014L53.7624 17.2626V17.2594Z" fill="#05142C"/>
<path d="M53.5131 17.2173L59.535 19.7766L63.5933 17.3102L57.6195 14.8053L53.5131 17.2173Z" fill="#BDCCDA"/>
<path d="M54.528 17.6531L59.528 19.7768L62.5806 17.9221L57.6126 15.8401L54.528 17.6531Z" fill="#BDCCDA"/>
<path d="M59.5478 19.9565L53.526 17.3972C53.3754 17.3331 53.3594 17.1217 53.5035 17.0384L57.6067 14.6265L63.9457 17.2851L59.5478 19.9565ZM53.8687 17.1954L59.5222 19.5977L63.241 17.3363L57.6292 14.982L53.8687 17.1922V17.1954Z" fill="#05142C"/>
<path d="M61.3319 17.1732L59.1697 18.4878L59.3362 18.7615L61.4983 17.4469L61.3319 17.1732Z" fill="#05142C"/>
<path d="M80.7327 23.6715L85.7968 29.4916L89.8584 27.0252L84.8359 21.2564L80.7327 23.6715Z" fill="#BDCCDA"/>
<path d="M86.0147 28.8414L80.7327 22.7747L84.8135 20.3755C84.9897 20.273 85.2171 20.3083 85.3516 20.462L90.3517 26.2052L86.0147 28.8382V28.8414ZM81.2292 22.8547L86.0819 28.4282L89.8616 26.1315L85.0537 20.6093L81.2292 22.8579V22.8547Z" fill="#05142C"/>
<path d="M80.9793 22.8132L87.0012 25.3725L91.0595 22.9093L85.0825 20.4012L80.9793 22.8132Z" fill="#BDCCDA"/>
<path d="M81.9948 23.2486L86.9917 25.3722L90.0443 23.5208L85.0762 21.4356L81.9948 23.2486Z" fill="#BDCCDA"/>
<path d="M87.0141 25.555L80.9923 22.9957C80.8417 22.9316 80.8257 22.7202 80.9698 22.6369L85.073 20.225L91.412 22.8836L87.0141 25.555ZM81.335 22.7939L86.9885 25.1962L90.7073 22.9348L85.0955 20.5805L81.335 22.7907V22.7939Z" fill="#05142C"/>
<path d="M88.7944 22.7802L86.6322 24.0948L86.7986 24.3685L88.9608 23.0539L88.7944 22.7802Z" fill="#05142C"/>
<path d="M43.2304 -0.867605L50.1203 -0.851587L54.2652 -3.23471H47.3432L43.2304 -0.867605Z" fill="#BDCCDA"/>
<path d="M43.4933 -0.239738L50.3832 -0.223721L54.528 -2.60685H47.6061L43.4933 -0.239738Z" fill="#BDCCDA"/>
<path d="M50.1651 -0.69083L42.6346 -0.710051L47.3015 -3.39747H54.8673L50.1651 -0.69083ZM43.8262 -1.02716L50.0786 -1.01114L53.6661 -3.07716H47.3848L43.8262 -1.02716Z" fill="#05142C"/>
<path d="M47.6907 -2.86187L45.3471 -1.51424L45.5067 -1.23657L47.8503 -2.5842L47.6907 -2.86187Z" fill="#05142C"/>
<path d="M23.3611 5.95457L30.2511 5.97379L34.3959 3.58746H27.4739L23.3611 5.95457Z" fill="#BDCCDA"/>
<path d="M23.624 6.58288L30.5139 6.5989L34.6587 4.21577H27.7368L23.624 6.58288Z" fill="#BDCCDA"/>
<path d="M30.2964 6.13458L22.7658 6.11536L27.4328 3.42794H34.9986L30.2964 6.13458ZM23.9574 5.79825L30.2099 5.81427L33.7974 3.74825H27.5161L23.9574 5.79825Z" fill="#05142C"/>
<path d="M27.8225 3.95941L25.4789 5.30704L25.6386 5.58471L27.9822 4.23709L27.8225 3.95941Z" fill="#05142C"/>
<path d="M73.9132 61.314L71.5697 62.6162L71.7253 62.8962L74.0688 61.594L73.9132 61.314Z" fill="#BDCCDA"/>
<path d="M73.9119 60.1707L71.5684 61.473L71.7239 61.753L74.0675 60.4507L73.9119 60.1707Z" fill="#BDCCDA"/>
<path d="M73.9128 58.984L71.5693 60.2863L71.7248 60.5662L74.0684 59.264L73.9128 58.984Z" fill="#BDCCDA"/>
<path d="M73.9134 57.8121L71.5699 59.1143L71.7255 59.3943L74.069 58.0921L73.9134 57.8121Z" fill="#BDCCDA"/>
<path d="M73.9112 56.6258L71.5677 57.9281L71.7233 58.208L74.0668 56.9058L73.9112 56.6258Z" fill="#BDCCDA"/>
<path d="M73.9134 55.4709L71.5699 56.7732L71.7255 57.0532L74.069 55.7509L73.9134 55.4709Z" fill="#BDCCDA"/>
<path d="M73.9123 54.2815L71.5688 55.5838L71.7244 55.8637L74.0679 54.5615L73.9123 54.2815Z" fill="#BDCCDA"/>
<path d="M73.9119 53.1127L71.5684 54.415L71.7239 54.695L74.0675 53.3927L73.9119 53.1127Z" fill="#BDCCDA"/>
<path d="M73.9123 51.9287L71.5688 53.2309L71.7244 53.5109L74.0679 52.2087L73.9123 51.9287Z" fill="#BDCCDA"/>
<path d="M76.2695 35.9346L67.7644 40.8193L67.9239 41.097L76.429 36.2123L76.2695 35.9346Z" fill="#05142C"/>
<path d="M80.2282 33.6357L77.0312 35.4719L77.1907 35.7496L80.3877 33.9135L80.2282 33.6357Z" fill="#05142C"/>
<path d="M55.9285 -12.9056L40.2206 -3.84034L40.3807 -3.56291L56.0886 -12.6282L55.9285 -12.9056Z" fill="#05142C"/>
<path d="M59.883 -15.2154L56.687 -13.3775L56.8466 -13.0999L60.0427 -14.9377L59.883 -15.2154Z" fill="#05142C"/>
<path d="M51.9453 48.8969L48.4301 46.8639L44.9148 48.8969V52.9612L48.4301 54.9942V50.9391L51.9453 48.8969Z" fill="#BDCCDA"/>
<path d="M44.9148 52.9487L48.4301 54.9817V50.9266L44.9148 48.8826V52.9487Z" fill="#FFBE2E"/>
<path d="M52.0147 48.8551L48.4303 46.782L44.855 48.8496L44.8441 48.8551V52.9996L48.3593 55.0326L48.4303 55.0727L48.5013 55.0326L51.9801 53.0214L52.0147 53.0014V48.8551ZM48.4303 46.9443L50.0814 47.8997L46.7082 49.8507L45.0571 48.8952L48.4303 46.9443ZM48.3593 54.8703L44.9861 52.9193V49.0174L48.3593 50.9684V54.8703ZM48.4303 50.8462L46.7792 49.8908L50.1524 47.9398L51.8036 48.8952L48.4303 50.8462Z" fill="#05142C"/>
<path d="M47.0342 50.9335L46.3825 50.5561C46.3097 50.5141 46.2369 50.5105 46.1768 50.5451C46.1094 50.5853 46.0694 50.6673 46.0694 50.7731C46.0694 50.9499 46.175 51.1505 46.3115 51.2289L46.9632 51.6063C47.0033 51.63 47.0433 51.641 47.0797 51.641C47.1107 51.641 47.1416 51.6337 47.1689 51.6173C47.2363 51.5772 47.2763 51.4951 47.2763 51.3894C47.2763 51.2125 47.1707 51.0119 47.0342 50.9335ZM47.0997 51.4969C47.0797 51.5079 47.0506 51.4951 47.0342 51.486L46.3825 51.1086C46.2896 51.0557 46.2114 50.9025 46.2114 50.7749C46.2114 50.7111 46.2314 50.6782 46.2478 50.6691C46.2678 50.6564 46.2969 50.671 46.3133 50.6801L46.3588 50.7056C46.3752 50.8588 46.4662 51.0192 46.5791 51.0848L47.1361 51.4058C47.1325 51.4586 47.1179 51.4878 47.1016 51.4969H47.0997Z" fill="#05142C"/>
</g>
<defs>
<clipPath id="clip0_1464_5011">
<rect width="72" height="72" fill="white"/>
</clipPath>
</defs>
</svg>
