<svg width="72" height="72" viewBox="0 0 72 72" fill="none" xmlns="http://www.w3.org/2000/svg">
<path d="M21.7167 21.9461L44.1685 8.70365L66.6336 21.9461V48.4172L44.1685 61.6597V35.2435L21.7167 21.9461Z" fill="#EBEEF2"/>
<path d="M66.6336 48.3348L44.1685 61.5772V35.161L66.6336 21.8637V48.3348Z" fill="#FFC701"/>
<path d="M21.2728 21.6851L44.1819 8.18164L67.0237 21.6439L67.091 21.6851V48.6782L44.6393 61.9206L44.1954 62.1816L43.7514 61.9206L21.5284 48.8156L21.2997 48.6782V21.6713L21.2728 21.6851ZM44.1819 9.23939L33.6354 15.4622L55.1858 28.1689L65.7323 21.9461L44.1819 9.23939ZM44.6258 60.8629L66.1762 48.1562V22.7428L44.6258 35.4495V60.8629ZM35.0344 29.2679L44.1684 34.6528L54.7284 28.4299L33.178 15.7232L22.6315 21.9461L35.0479 29.2679H35.0344Z" fill="#05142C"/>
<path d="M24.9587 40.6833C25.1739 40.5597 25.4295 40.5734 25.6851 40.7245L29.0078 42.6752C29.4921 42.9636 29.8822 43.7054 29.8822 44.3648V47.9914C29.8822 48.376 29.7477 48.6782 29.5056 48.8156C29.4114 48.8705 29.3038 48.898 29.1962 48.898C29.0616 48.898 28.9271 48.8568 28.7791 48.7744L25.4564 46.8237C24.9722 46.5353 24.5821 45.7935 24.5821 45.1341V41.5075C24.5821 41.1229 24.7166 40.8207 24.9587 40.6833Z" fill="#FFC701"/>
<path d="M45.8183 45.1566V40.9835L48.202 39.6072V40.2051L46.4796 41.1995V42.3834L48.0841 41.457V42.0549L46.4796 42.9813V44.7748L45.8183 45.1566Z" fill="#05142C"/>
<path d="M48.7519 43.4629V39.2898L50.3308 38.3782C50.7272 38.1493 51.0331 38.0813 51.2484 38.174C51.4671 38.2648 51.5764 38.5035 51.5764 38.8902C51.5764 39.1467 51.5269 39.3944 51.4278 39.6331C51.3321 39.8699 51.1937 40.0899 51.0125 40.2931C50.8314 40.4924 50.6178 40.6631 50.3718 40.8051L50.577 40.6748L50.8092 40.4929C50.9528 40.41 50.8895 40.4371 51.0023 40.4588C51.1151 40.4805 51.2073 40.5595 51.2791 40.6956L51.8071 41.6989L51.0792 42.1192L50.5461 41.0715C50.4982 40.961 50.4247 40.9127 50.3256 40.9265C50.2299 40.9383 50.1137 40.9837 49.977 41.0626L49.4132 41.3882V43.0811L48.7519 43.4629ZM49.4132 40.8258L50.2231 40.3582C50.4555 40.224 50.6315 40.0672 50.7511 39.8876C50.8741 39.7022 50.9357 39.5009 50.9357 39.2839C50.9357 39.0668 50.8741 38.9386 50.7511 38.8991C50.6315 38.8577 50.4555 38.904 50.2231 39.0382L49.4132 39.5058V40.8258Z" fill="#05142C"/>
<path d="M52.2083 39.3778C52.2083 38.9398 52.2767 38.5215 52.4134 38.1229C52.5535 37.7223 52.7534 37.3603 53.0132 37.0367C53.2729 36.7092 53.5822 36.4418 53.941 36.2346C54.2964 36.0294 54.604 35.9406 54.8637 35.9683C55.1235 35.9919 55.3234 36.1231 55.4635 36.3619C55.607 36.5987 55.6788 36.9341 55.6788 37.3682C55.6788 37.8062 55.607 38.2284 55.4635 38.6349C55.3234 39.0354 55.1235 39.3995 54.8637 39.727C54.604 40.0546 54.2964 40.3209 53.941 40.5261C53.5822 40.7333 53.2729 40.8231 53.0132 40.7955C52.7568 40.7659 52.5586 40.6317 52.4185 40.3929C52.2784 40.1503 52.2083 39.8119 52.2083 39.3778ZM52.9004 38.9782C52.9004 39.4478 52.9875 39.7645 53.1618 39.9283C53.3361 40.092 53.5958 40.0743 53.941 39.875C54.2759 39.6816 54.5339 39.4005 54.7151 39.0315C54.8962 38.6625 54.9868 38.2432 54.9868 37.7736C54.9868 37.3001 54.8962 36.9854 54.7151 36.8295C54.5374 36.6717 54.2793 36.6904 53.941 36.8858C53.5958 37.085 53.3361 37.3652 53.1618 37.7263C52.9875 38.0874 52.9004 38.5047 52.9004 38.9782Z" fill="#05142C"/>
<path d="M56.3663 39.0667V34.8936L56.9456 34.5591L58.1903 37.094L58.1144 37.3353L59.4421 33.1178L60.0162 32.7863V36.9594L59.4164 37.3057V34.6801L59.601 34.1034L58.386 37.9006L57.9913 38.1285L56.7764 35.7341L56.9661 36.1079V38.7204L56.3663 39.0667Z" fill="#05142C"/>
<path d="M46.6107 53.5574V52.4866L48.0146 51.676V46.7725V47.1069L46.7493 48.7439V47.5231L48.3353 45.5066L49.1326 45.0463V51.0306L50.4499 50.27V51.3408L46.6107 53.5574Z" fill="#05142C"/>
<path d="M53.8994 49.3493V42.2942L55.0173 41.6488V44.771L55.0347 44.761L57.6953 40.1027L59.0472 39.3221L56.0828 44.3973L55.8667 44.2706L59.2552 46.2571L57.8599 47.0626L55.0347 45.4315L55.0173 45.4415V48.7038L53.8994 49.3493Z" fill="#05142C"/>
<path d="M62.3725 44.5574C61.685 44.9543 61.1072 45.1411 60.6392 45.1178C60.1712 45.0944 59.8188 44.8809 59.5819 44.4773C59.345 44.0737 59.2266 43.5016 59.2266 42.7611C59.2266 42.0139 59.3537 41.2967 59.6079 40.6095C59.8621 39.9157 60.2261 39.2853 60.6999 38.7182C61.1794 38.1411 61.7543 37.6591 62.4245 37.2722C62.8694 37.0153 63.2594 36.8602 63.5945 36.8068C63.9296 36.7468 64.2242 36.7735 64.4785 36.8869L64.1058 38.1028C63.9209 38.0427 63.7447 38.011 63.5772 38.0077C63.4096 38.0043 63.2363 38.0344 63.0572 38.0977C62.8781 38.1545 62.6701 38.2512 62.4332 38.388C61.763 38.7749 61.2545 39.2886 60.9079 39.9291C60.567 40.5595 60.3966 41.2817 60.3966 42.0956C60.3966 42.9095 60.5583 43.4366 60.8819 43.6767C61.2112 43.9136 61.7254 43.8302 62.4245 43.4266C62.6614 43.2898 62.8983 43.1263 63.1352 42.9362C63.3778 42.7427 63.6147 42.5293 63.8458 42.2957L63.6378 42.499V40.8447L62.2079 41.6703V40.7296L64.5651 39.3687V42.7611C64.282 43.0913 63.944 43.4165 63.5512 43.7368C63.1583 44.057 62.7654 44.3305 62.3725 44.5574Z" fill="#05142C"/>
<path d="M24.3553 43.4756L14.7331 37.8576L5.1052 43.4756V54.7058L14.7331 60.3238V49.117L24.3553 43.4756Z" fill="#EBEEF2"/>
<path d="M5.1052 54.6709L14.7331 60.2889V49.082L5.1052 43.4407V54.6709Z" fill="#FFC701"/>
<path d="M24.5455 43.3649L14.7274 37.6362L4.93801 43.3474L4.90918 43.3649V54.8165L14.5313 60.4345L14.7216 60.5453L14.9118 60.4345L24.436 54.8748L24.534 54.8165V43.3591L24.5455 43.3649ZM14.7274 38.0849L19.4433 40.8357L10.2074 46.2264L5.49147 43.4756L14.7274 38.0849ZM14.5371 59.9858L5.30121 54.5951V43.8137L14.5371 49.2044V59.9858ZM18.6477 46.5819L14.7331 48.8664L10.2074 46.2264L19.4433 40.8357L23.9633 43.4756L18.642 46.5819H18.6477Z" fill="#05142C"/>
<path d="M22.9659 51.4248C22.8736 51.3723 22.7641 51.3782 22.6546 51.4423L21.2305 52.2698C21.023 52.3922 20.8558 52.7069 20.8558 52.9866V54.5252C20.8558 54.6883 20.9135 54.8166 21.0172 54.8748C21.0576 54.8981 21.1037 54.9098 21.1498 54.9098C21.2075 54.9098 21.2651 54.8923 21.3285 54.8573L22.7526 54.0298C22.9601 53.9074 23.1273 53.5927 23.1273 53.313V51.7744C23.1273 51.6113 23.0696 51.4831 22.9659 51.4248Z" fill="#FFC701"/>
<path d="M11.9386 57.3045L10.5517 56.4745C10.3294 56.3401 10.1455 55.9844 10.1455 55.684V54.1742C10.1455 53.8659 10.3294 53.7236 10.5517 53.858L11.9386 54.688C12.1608 54.8224 12.3447 55.1781 12.3447 55.4864V56.9962C12.3447 57.3045 12.1608 57.4468 11.9386 57.3124V57.3045Z" fill="#05142C"/>
<path d="M37.4779 50.8233L29.4594 46.0078L21.4362 50.8233V60.4491L29.4594 65.2646V55.6587L37.4779 50.8233Z" fill="#EBEEF2"/>
<path d="M21.4362 60.4191L29.4594 65.2346V55.6287L21.4362 50.7933V60.4191Z" fill="#FFC701"/>
<path d="M37.6365 50.7283L29.4546 45.818L21.2968 50.7134L21.2728 50.7283V60.544L29.2913 65.3595L29.4498 65.4544L29.6084 65.3595L37.5452 60.594L37.6268 60.544V50.7234L37.6365 50.7283ZM29.4546 46.2026L33.3846 48.5604L25.688 53.181L21.7581 50.8233L29.4546 46.2026ZM29.2961 64.9748L21.5995 60.3542V51.113L29.2961 55.7336V64.9748ZM32.7216 53.4857L29.4594 55.4439L25.688 53.181L33.3846 48.5604L37.1512 50.8233L32.7168 53.4857H32.7216Z" fill="#05142C"/>
<path d="M36.3201 57.6368C36.2432 57.5918 36.1519 57.5968 36.0606 57.6518L34.8739 58.3611C34.701 58.466 34.5617 58.7357 34.5617 58.9755V60.2943C34.5617 60.4341 34.6097 60.544 34.6962 60.594C34.7298 60.614 34.7683 60.624 34.8067 60.624C34.8547 60.624 34.9028 60.609 34.9556 60.579L36.1423 59.8697C36.3153 59.7648 36.4546 59.495 36.4546 59.2553V57.9365C36.4546 57.7966 36.4065 57.6867 36.3201 57.6368Z" fill="#FFC701"/>
<path d="M27.1307 62.6766L25.9749 61.9651C25.7897 61.85 25.6365 61.5451 25.6365 61.2876V59.9934C25.6365 59.7292 25.7897 59.6072 25.9749 59.7224L27.1307 60.4338C27.3158 60.549 27.4691 60.8539 27.4691 61.1182V62.4123C27.4691 62.6766 27.3158 62.7986 27.1307 62.6834V62.6766Z" fill="#05142C"/>
</svg>
