<svg width="16" height="16" viewBox="0 0 16 16" fill="none" xmlns="http://www.w3.org/2000/svg">
<g id="ic" clip-path="url(#clip0_1346_4311)">
<mask id="mask0_1346_4311" style="mask-type:alpha" maskUnits="userSpaceOnUse" x="0" y="0" width="24" height="24">
<rect id="Bounding box" width="24" height="24" fill="#D9D9D9"/>
</mask>
<g mask="url(#mask0_1346_4311)">
<path id="arrow_upward_alt" d="M7.50009 5.40528L5.28467 7.62068C5.19237 7.71298 5.07635 7.7602 4.93661 7.76235C4.79687 7.76448 4.67872 7.71726 4.58214 7.62068C4.48555 7.5241 4.43726 7.40701 4.43726 7.26941C4.43726 7.1318 4.48555 7.01471 4.58214 6.91813L7.57829 3.92198C7.6988 3.80147 7.8394 3.74121 8.00007 3.74121C8.16075 3.74121 8.30135 3.80147 8.42186 3.92198L11.418 6.91813C11.5103 7.01044 11.5575 7.12646 11.5597 7.2662C11.5618 7.40594 11.5146 7.5241 11.418 7.62068C11.3214 7.71726 11.2043 7.76554 11.0667 7.76554C10.9291 7.76554 10.8121 7.71726 10.7155 7.62068L8.50006 5.40528V11.2694C8.50006 11.4113 8.4522 11.5301 8.35647 11.6258C8.26075 11.7215 8.14195 11.7694 8.00007 11.7694C7.8582 11.7694 7.7394 11.7215 7.64367 11.6258C7.54795 11.5301 7.50009 11.4113 7.50009 11.2694V5.40528Z" fill="white"/>
</g>
</g>
<defs>
<clipPath id="clip0_1346_4311">
<rect width="16" height="16" fill="white"/>
</clipPath>
</defs>
</svg>
