<svg width="16" height="16" viewBox="0 0 16 16" fill="none" xmlns="http://www.w3.org/2000/svg">
<g id="soc">
<g id="Vector">
<path d="M13.137 2.40116C12.7906 2.08112 11.3884 1.06628 8.26703 1.05365C8.26703 1.05365 4.58395 0.830474 2.7762 2.47274C1.77518 3.47073 1.42461 4.92772 1.3866 6.73421C1.34858 8.5407 1.30212 11.9263 4.5755 12.8443V14.2465C4.5755 14.2465 4.5755 14.815 4.93029 14.9287C5.38223 15.0719 5.64832 14.6381 6.08337 14.1749C6.31989 13.9181 6.64935 13.5433 6.89432 13.257C8.28698 13.3867 9.69157 13.2842 11.0505 12.9538C11.5024 12.8064 14.062 12.4821 14.4801 9.09234C14.9236 5.60147 14.2858 3.39494 13.137 2.40116ZM13.5171 8.84389C13.1623 11.6694 11.0885 11.8463 10.7083 11.9684C9.53913 12.2557 8.33212 12.3595 7.13085 12.2758C7.13085 12.2758 5.71168 13.9602 5.26819 14.4234C5.24352 14.4524 5.21227 14.4752 5.17702 14.4899C5.14176 14.5045 5.10352 14.5106 5.06545 14.5076C4.98943 14.4866 4.96831 14.3981 4.96831 14.2676C4.96831 14.137 4.96831 11.9389 4.96831 11.9389C2.19755 11.1683 2.35805 8.28805 2.39184 6.78053C2.42563 5.27301 2.70862 4.035 3.55336 3.20123C5.06968 1.83268 8.19945 2.0348 8.19945 2.0348C10.8393 2.0348 12.1064 2.83909 12.3978 3.10438C13.3819 3.93815 13.8761 5.92571 13.5171 8.84389Z" fill="white"/>
<path fill-rule="evenodd" clip-rule="evenodd" d="M8.4804 5.26949C8.66615 5.26035 8.85174 5.29083 9.02479 5.35892C9.19783 5.42701 9.35438 5.53117 9.48394 5.66447C9.61351 5.79778 9.71311 5.95718 9.77603 6.13204C9.83895 6.30691 9.86372 6.49317 9.84867 6.67838C9.83532 6.84278 9.69122 6.96523 9.52682 6.95187C9.36242 6.93852 9.23997 6.79442 9.25333 6.63002C9.26147 6.52979 9.24807 6.42896 9.21399 6.33427C9.17992 6.23956 9.12594 6.15313 9.05562 6.08078C8.98529 6.00842 8.90022 5.95179 8.80607 5.91474C8.71192 5.8777 8.61089 5.86109 8.50975 5.86607C8.34501 5.87418 8.20488 5.7472 8.19678 5.58245C8.18867 5.41771 8.31565 5.27759 8.4804 5.26949Z" fill="white"/>
<path fill-rule="evenodd" clip-rule="evenodd" d="M7.94721 4.61705C7.95134 4.45216 8.08835 4.32184 8.25324 4.32597C8.94776 4.34337 9.60863 4.62857 10.0968 5.12189C10.0998 5.12485 10.1026 5.12788 10.1055 5.13096C10.3301 5.37784 10.5031 5.667 10.6143 5.9815C10.7255 6.296 10.7726 6.6295 10.7529 6.96243C10.7431 7.12708 10.6017 7.25265 10.4371 7.24289C10.2724 7.23313 10.1469 7.09174 10.1566 6.92708C10.1717 6.67376 10.1358 6.41998 10.0512 6.1806C9.96724 5.94318 9.83697 5.72465 9.66787 5.53759C9.28883 5.15688 8.77671 4.93658 8.23829 4.92309C8.0734 4.91896 7.94308 4.78194 7.94721 4.61705Z" fill="white"/>
<path fill-rule="evenodd" clip-rule="evenodd" d="M7.90968 3.41218C8.40487 3.40108 8.8973 3.48893 9.35794 3.67058C9.81858 3.85224 10.2381 4.12403 10.5918 4.46997C10.5937 4.47177 10.5955 4.47359 10.5973 4.47544C10.9638 4.85287 11.2491 5.30103 11.4357 5.79245C11.6223 6.28386 11.7063 6.80814 11.6824 7.3331C11.6749 7.49787 11.5352 7.62537 11.3705 7.61787C11.2057 7.61038 11.0782 7.47073 11.0857 7.30596C11.1059 6.86253 11.035 6.41966 10.8773 6.00449C10.7201 5.59053 10.4799 5.21278 10.1714 4.8943C9.87531 4.60538 9.52425 4.37824 9.13881 4.22624C8.75218 4.07377 8.3388 4.00001 7.92307 4.00933C7.75817 4.01303 7.6215 3.88235 7.6178 3.71745C7.6141 3.55255 7.74478 3.41587 7.90968 3.41218Z" fill="white"/>
<path d="M8.53307 9.01233C8.60307 9.01753 8.67336 9.00741 8.73903 8.98268C8.80469 8.95795 8.86414 8.9192 8.9132 8.86916L9.17507 8.5407C9.26473 8.44233 9.38635 8.37868 9.51848 8.36096C9.65061 8.34324 9.78478 8.3726 9.89733 8.44385C10.1214 8.57272 10.3385 8.71328 10.5478 8.86494C10.7463 9.01232 11.1475 9.34499 11.1475 9.3492C11.2421 9.42542 11.3051 9.5337 11.3246 9.65334C11.3441 9.77297 11.3186 9.89557 11.2531 9.99769C11.1094 10.2466 10.9269 10.4712 10.7125 10.663C10.5578 10.8031 10.3655 10.8953 10.1592 10.9283C10.1326 10.9329 10.1055 10.9329 10.0789 10.9283C10.0002 10.9295 9.92178 10.9181 9.84664 10.8946C9.32021 10.7132 8.81359 10.479 8.33455 10.1956C7.88868 9.95171 7.46474 9.66994 7.06744 9.35341C6.86784 9.19597 6.67746 9.02726 6.49724 8.8481H6.47612C6.29749 8.66594 6.12832 8.47479 5.96927 8.27541C5.6532 7.87828 5.37066 7.45575 5.12453 7.01213C4.84021 6.53519 4.60664 6.02994 4.42762 5.50461C4.40266 5.42847 4.38984 5.3489 4.3896 5.2688C4.38706 5.24219 4.38706 5.2154 4.3896 5.18879C4.42209 4.98411 4.51469 4.79362 4.6557 4.64137C4.81817 4.39608 5.01927 4.17853 5.25124 3.9971C5.35432 3.93153 5.47798 3.90602 5.59869 3.92543C5.7194 3.94484 5.82874 4.00781 5.90592 4.10237C5.90592 4.10237 6.24381 4.52346 6.38742 4.70032C6.53102 4.87718 6.70842 5.18458 6.80979 5.34881C6.87944 5.46262 6.9074 5.59697 6.88892 5.72901C6.87044 5.86105 6.80666 5.98263 6.70842 6.07309L6.37897 6.32995C6.32867 6.37968 6.28979 6.43969 6.26499 6.50584C6.2402 6.572 6.23009 6.64273 6.23536 6.71315C6.39631 7.25669 6.69072 7.7516 7.09193 8.15307C7.49314 8.55454 7.98848 8.84988 8.53307 9.01233Z" fill="white"/>
</g>
</g>
</svg>
